<?xml version="1.0" encoding="UTF-8"?>
<svg version="1.1" xmlns="http://www.w3.org/2000/svg" width="474" height="474">
<path d="M0 0 C156.42 0 312.84 0 474 0 C474 156.42 474 312.84 474 474 C317.58 474 161.16 474 0 474 C0 317.58 0 161.16 0 0 Z " fill="#F9F9F9" transform="translate(0,0)"/>
<path d="M0 0 C4.25535088 3.97782799 7.31246191 7.78085005 7.875 13.6875 C7.93994762 16.36034418 7.92033525 19.01272018 7.875 21.6875 C8.89207031 21.94273438 8.89207031 21.94273438 9.9296875 22.203125 C25.33939088 26.21562394 39.96194924 33.00884002 52.17578125 43.375 C53.95262214 44.89651761 53.95262214 44.89651761 56.875 45.6875 C56.875 46.3475 56.875 47.0075 56.875 47.6875 C57.535 47.6875 58.195 47.6875 58.875 47.6875 C58.978125 48.326875 59.08125 48.96625 59.1875 49.625 C59.414375 50.305625 59.64125 50.98625 59.875 51.6875 C60.865 52.0175 61.855 52.3475 62.875 52.6875 C88.36334576 79.90470643 96.18309495 112.56509875 96.14939499 148.92835617 C96.14840266 151.29400232 96.16167468 153.65922637 96.17837524 156.02481079 C96.22388817 162.73477194 96.24926317 169.44467396 96.25585938 176.15478516 C96.26090917 180.29952992 96.28530533 184.44381112 96.32118607 188.58839798 C96.33087705 190.1470421 96.33337561 191.70575071 96.32801437 193.26441574 C96.26431026 212.66019201 102.53413043 224.50948252 116.078125 238.1484375 C118.74680798 240.80048156 121.43435119 243.43276912 124.125 246.0625 C126.1723778 248.07462814 128.21749071 250.08898773 130.25994873 252.10610962 C131.52105843 253.35044387 132.7852493 254.59166603 134.05303955 255.82919312 C135.68104543 257.42954521 137.27936739 259.05499774 138.875 260.6875 C139.61073242 261.40244629 140.34646484 262.11739258 141.10449219 262.85400391 C148.66758321 274.95786965 145.875 291.72299225 145.875 304.6875 C38.955 304.6875 -67.965 304.6875 -178.125 304.6875 C-178.125 267.76635988 -178.125 267.76635988 -168.73681641 257.89282227 C-167.40983808 256.58651446 -166.07255596 255.29061258 -164.7265625 254.00390625 C-164.01398285 253.30410141 -163.3014032 252.60429657 -162.56723022 251.88328552 C-160.3042631 249.66227219 -158.02860764 247.45495616 -155.75 245.25 C-153.47939084 243.0478089 -151.21217515 240.84256635 -148.95419312 238.62742615 C-147.55486331 237.25498946 -146.14842656 235.88974511 -144.73355103 234.53334045 C-133.95005863 223.96869875 -128.79659832 212.76085009 -128.58010292 197.57323074 C-128.57038095 195.29347336 -128.57822836 193.01413402 -128.5859375 190.734375 C-128.57599233 189.105069 -128.5640369 187.47577419 -128.55020142 185.84649658 C-128.51803974 181.57486173 -128.50747133 177.3034822 -128.50335693 173.03173828 C-128.49352358 165.43252069 -128.45329973 157.83339141 -128.3984375 150.234375 C-128.39256371 149.42037735 -128.38668991 148.6063797 -128.38063812 147.76771545 C-128.2986486 137.80668879 -128.07904381 127.88838728 -127.2890625 117.953125 C-127.22036957 117.04939148 -127.15167664 116.14565796 -127.0809021 115.21453857 C-126.29532774 106.76963928 -124.30576392 98.51407465 -120.5625 90.875 C-118.81347447 87.19783187 -117.28852949 83.60119012 -116.125 79.6875 C-115.465 79.6875 -114.805 79.6875 -114.125 79.6875 C-113.85945313 78.80578125 -113.59390625 77.9240625 -113.3203125 77.015625 C-109.84017499 67.32583035 -101.88257857 55.34456938 -93.125 49.6875 C-92.465 49.6875 -91.805 49.6875 -91.125 49.6875 C-90.8671875 49.08550781 -90.609375 48.48351562 -90.34375 47.86328125 C-89.00526023 45.4737338 -87.8418262 44.45130879 -85.625 42.875 C-84.91085938 42.36453125 -84.19671875 41.8540625 -83.4609375 41.328125 C-82.69007813 40.78671875 -81.91921875 40.2453125 -81.125 39.6875 C-80.33351563 39.10484375 -79.54203125 38.5221875 -78.7265625 37.921875 C-67.40152306 29.70496942 -54.97471176 23.92702786 -41.125 21.6875 C-40.97804687 20.38425781 -40.97804687 20.38425781 -40.828125 19.0546875 C-39.45640531 8.48298572 -36.77023993 3.6671412 -28.44140625 -2.89453125 C-19.42899362 -8.41140441 -7.8994929 -5.84562475 0 0 Z " fill="#00C0FE" transform="translate(253.125,44.3125)"/>
<path d="M0 0 C32.67 0 65.34 0 99 0 C99 22.15422457 98.29047767 33.30312636 83.625 48.6875 C81 51 81 51 79 51 C79 51.66 79 52.32 79 53 C77.00436738 53.96739508 75.00324118 54.92346044 73 55.875 C71.88625 56.40867187 70.7725 56.94234375 69.625 57.4921875 C57.39723068 62.57830707 43.50442276 62.79864555 31.00390625 58.40234375 C25.79275092 55.96956772 21.41329431 52.65167804 17 49 C15.99324219 48.25363281 14.98648438 47.50726563 13.94921875 46.73828125 C10.41868997 43.78024007 8.67523251 40.24499757 6.75 36.125 C6.41226563 35.44308594 6.07453125 34.76117188 5.7265625 34.05859375 C0.22139035 22.67979305 0 12.66271379 0 0 Z " fill="#01BFFD" transform="translate(187,374)"/>
<path d="M0 0 C5.88442625 4.88383555 11.29468338 10.14454205 16.6875 15.5625 C17.94916992 16.81836914 17.94916992 16.81836914 19.23632812 18.09960938 C20.45545898 19.32067383 20.45545898 19.32067383 21.69921875 20.56640625 C22.42971436 21.29802979 23.16020996 22.02965332 23.9128418 22.78344727 C24.601604 23.51490967 25.29036621 24.24637207 26 25 C26.68682861 25.66894287 27.37365723 26.33788574 28.08129883 27.02709961 C35.85759316 39.07595266 33 56.01005109 33 69 C-73.92 69 -180.84 69 -291 69 C-291 31.75994307 -291 31.75994307 -279.359375 19.96875 C-277.17387822 17.79407499 -274.96361201 15.64599159 -272.75 13.5 C-271.61105405 12.38114929 -270.47302438 11.26136503 -269.3359375 10.140625 C-266.56774988 7.41619383 -263.78742955 4.70473538 -261 2 C-261 6.12554008 -262.74888757 8.52141259 -265.375 11.625 C-267 13 -267 13 -269.28515625 14.2890625 C-278.46035694 20.07141919 -284.0560429 28.14010726 -288 38 C-288.33 47.57 -288.66 57.14 -289 67 C-183.4 67 -77.8 67 31 67 C30.91762201 49.89313876 30.91762201 49.89313876 29 33 C28.34 33 27.68 33 27 33 C24.3125 30.75 24.3125 30.75 22 28 C22.1875 25.6875 22.1875 25.6875 23 24 C22.34 24 21.68 24 21 24 C21 23.34 21 22.68 21 22 C19.68 22 18.36 22 17 22 C17 20.68 17 19.36 17 18 C16.01 18.33 15.02 18.66 14 19 C13.67 17.35 13.34 15.7 13 14 C12.34 14 11.68 14 11 14 C10.67 13.34 10.34 12.68 10 12 C9.01 11.67 8.02 11.34 7 11 C6.66666667 9.66666667 6.33333333 8.33333333 6 7 C5.01 6.67 4.02 6.34 3 6 C0 2.55555556 0 2.55555556 0 0 Z " fill="#3CBAE1" transform="translate(366,280)"/>
<path d="M0 0 C106.59 0 213.18 0 323 0 C322.67 1.32 322.34 2.64 322 4 C321.34 3.67 320.68 3.34 320 3 C318.25938797 2.90575544 316.51512456 2.87626858 314.77196312 2.87695217 C313.65677783 2.87496112 312.54159255 2.87297007 311.39261377 2.87091869 C310.15722695 2.87383153 308.92184012 2.87674437 307.64901733 2.87974548 C306.34465528 2.87889106 305.04029323 2.87803663 303.69640505 2.87715632 C300.06381071 2.87491168 296.43124564 2.87893222 292.79865503 2.88393438 C288.88590652 2.88823913 284.97315976 2.88679244 281.06040955 2.8860321 C274.27728253 2.88550689 267.4941651 2.88865347 260.7110405 2.89426994 C250.90369227 2.90238522 241.0963487 2.90500019 231.28899749 2.90625793 C215.37853475 2.90844841 199.46807714 2.91510838 183.55761719 2.92456055 C168.09895859 2.93373478 152.64030139 2.94081556 137.18164062 2.94506836 C136.22931448 2.94533108 135.27698834 2.94559381 134.29580383 2.94586449 C129.51842638 2.9471695 124.74104891 2.94843321 119.96367145 2.94967639 C80.30911071 2.96004887 40.65455569 2.97766707 1 3 C0.67 2.01 0.34 1.02 0 0 Z " fill="#CEFEFE" transform="translate(75,349)"/>
<path d="M0 0 C0.99 0 1.98 0 3 0 C3.33 1.32 3.66 2.64 4 4 C15.53513536 3.89250859 27.07020793 3.77987711 38.60522842 3.66066074 C43.96124469 3.60546743 49.31726646 3.5520531 54.67333984 3.50268555 C59.84103911 3.45498912 65.00867219 3.40264428 70.17629242 3.34705925 C72.14905909 3.32665964 74.12184389 3.30794262 76.09464264 3.29092598 C78.855154 3.26682905 81.61554066 3.23678159 84.37597656 3.20532227 C85.19381119 3.1995668 86.01164581 3.19381134 86.85426331 3.18788147 C93.5807066 3.31344719 93.5807066 3.31344719 99 0 C100.85725751 3.94908214 101.23651489 7.04767897 101.1953125 11.39453125 C101.18886719 12.59658203 101.18242187 13.79863281 101.17578125 15.03710938 C101.15064453 16.90592773 101.15064453 16.90592773 101.125 18.8125 C101.11597656 20.07771484 101.10695313 21.34292969 101.09765625 22.64648438 C101.07412394 25.76451564 101.04124545 28.88216097 101 32 C100.34 32 99.68 32 99 32 C99.33 23.42 99.66 14.84 100 6 C67.33 6 34.66 6 1 6 C2.76093518 27.60435375 2.76093518 27.60435375 11.14453125 46.2578125 C11.56798828 47.12019531 11.56798828 47.12019531 12 48 C11.67 48.66 11.34 49.32 11 50 C7 45.375 7 45.375 7 42 C5.68 41.67 4.36 41.34 3 41 C2.69255859 39.60974609 2.69255859 39.60974609 2.37890625 38.19140625 C2.10949219 36.99386719 1.84007812 35.79632813 1.5625 34.5625 C1.29566406 33.36753906 1.02882812 32.17257812 0.75390625 30.94140625 C0.29933252 28.1295314 0.29933252 28.1295314 -1 27 C-1.0992724 25.4243784 -1.13079953 23.84436956 -1.1328125 22.265625 C-1.13410156 21.29882812 -1.13539063 20.33203125 -1.13671875 19.3359375 C-1.13285156 18.31757813 -1.12898437 17.29921875 -1.125 16.25 C-1.12886719 15.24710937 -1.13273438 14.24421875 -1.13671875 13.2109375 C-1.13542969 12.23898437 -1.13414062 11.26703125 -1.1328125 10.265625 C-1.13112061 8.93192871 -1.13112061 8.93192871 -1.12939453 7.57128906 C-0.99793973 4.95905901 -0.57705919 2.54777077 0 0 Z " fill="#CAF7FD" transform="translate(186,368)"/>
<path d="M0 0 C32.67 0 65.34 0 99 0 C99 22.15422457 98.29047767 33.30312636 83.625 48.6875 C81 51 81 51 79 51 C79 51.66 79 52.32 79 53 C77.71086513 53.67154933 76.41859796 54.33708859 75.125 55 C74.40570313 55.37125 73.68640625 55.7425 72.9453125 56.125 C71 57 71 57 69 57 C69 56.01 69 55.02 69 54 C76.42857143 50.71428571 76.42857143 50.71428571 80 50 C80.33 48.35 80.66 46.7 81 45 C81.99 45 82.98 45 84 45 C84.33 43.68 84.66 42.36 85 41 C85.99 41 86.98 41 88 41 C88 39.02 88 37.04 88 35 C89.65 34.34 91.3 33.68 93 33 C93.07347656 32.00419922 93.07347656 32.00419922 93.1484375 30.98828125 C93.22320312 30.10527344 93.29796875 29.22226562 93.375 28.3125 C93.44460938 27.44238281 93.51421875 26.57226562 93.5859375 25.67578125 C94 23 94 23 95.03125 20.65625 C96.30882133 17.15323185 96.21636169 13.85953734 96.125 10.1875 C96.11597656 9.49462891 96.10695313 8.80175781 96.09765625 8.08789062 C96.07426157 6.39177605 96.03839641 4.69584129 96 3 C91.05133286 2.00775394 86.35235478 1.86368547 81.33251953 1.88647461 C80.48308273 1.88632858 79.63364594 1.88618256 78.75846863 1.8860321 C75.96655677 1.88672563 73.17471263 1.89449174 70.3828125 1.90234375 C68.44082679 1.90420992 66.4988406 1.90563288 64.55685425 1.90663147 C59.45726206 1.91044098 54.35769856 1.92025786 49.25811768 1.93133545 C44.04968656 1.94158327 38.8412508 1.94613631 33.6328125 1.95117188 C23.4218604 1.96188157 13.21093708 1.97946566 3 2 C2.67 7.28 2.34 12.56 2 18 C2.99 18.33 3.98 18.66 5 19 C5.12375 19.99 5.2475 20.98 5.375 22 C5.97841257 26.1149385 6.78448226 30.01580296 8 34 C8.99 34.66 9.98 35.32 11 36 C11 36.99 11 37.98 11 39 C11.66 39.33 12.32 39.66 13 40 C12.67 40.99 12.34 41.98 12 43 C13.32 43.33 14.64 43.66 16 44 C15.67 44.99 15.34 45.98 15 47 C11.02531843 43.37421475 8.69985589 40.02846806 6.3125 35.125 C5.73113281 33.95195312 5.14976562 32.77890625 4.55078125 31.5703125 C-0.06217606 20.95005309 0 11.62145524 0 0 Z " fill="#22AFD7" transform="translate(187,374)"/>
<path d="M0 0 C0.495 0.99 0.495 0.99 1 2 C0.02062998 3.85742591 -0.96019156 5.71410447 -1.94921875 7.56640625 C-3.50366151 11.16647257 -3.98010188 14.81339952 -4.5078125 18.6796875 C-5 21 -5 21 -7 23 C-7.85334444 24.89756126 -7.85334444 24.89756126 -8.5625 27 C-9.29936964 29.07697972 -10.01375093 31.02750187 -11 33 C-13.17059128 42.7811474 -13.28238938 52.47745717 -13.27439499 62.44190407 C-13.2734134 65.14848199 -13.28656138 67.85468009 -13.30337524 70.561203 C-13.34915845 78.24690887 -13.37422375 85.9325702 -13.38085938 93.6184082 C-13.3859223 98.34741134 -13.41040319 103.07601085 -13.44618607 107.80487633 C-13.4558663 109.58629603 -13.45838178 111.36777206 -13.45301437 113.14920998 C-13.41775571 125.42370804 -13.6092833 139.06700351 -20 150 C-20.515625 150.495 -21.03125 150.99 -21.5625 151.5 C-23.17117852 152.89430702 -23.17117852 152.89430702 -23.3125 154.9375 C-24.41257716 158.23773149 -27.12989445 159.22053456 -30 161 C-31.79394446 162.62351109 -31.79394446 162.62351109 -33 164 C-33.66 163.67 -34.32 163.34 -35 163 C-34.49210937 162.52691406 -33.98421875 162.05382812 -33.4609375 161.56640625 C-23.02096797 151.53699732 -16.84202312 140.82927914 -16.48583984 126.04199219 C-16.44417639 123.04320582 -16.45079625 120.04586165 -16.4609375 117.046875 C-16.45099233 115.417569 -16.4390369 113.78827419 -16.42520142 112.15899658 C-16.39303974 107.88736173 -16.38247133 103.6159822 -16.37835693 99.34423828 C-16.36852358 91.74502069 -16.32829973 84.14589141 -16.2734375 76.546875 C-16.26756371 75.73287735 -16.26168991 74.9188797 -16.25563812 74.08021545 C-16.1736486 64.11918879 -15.95404381 54.20088728 -15.1640625 44.265625 C-15.09536957 43.36189148 -15.02667664 42.45815796 -14.9559021 41.52703857 C-14.17032774 33.08213928 -12.18076392 24.82657465 -8.4375 17.1875 C-6.68847447 13.51033187 -5.16352949 9.91369012 -4 6 C-3.34 6 -2.68 6 -2 6 C-1.34 4.02 -0.68 2.04 0 0 Z " fill="#1BB3E2" transform="translate(141,118)"/>
<path d="M0 0 C3.19588456 2.67133208 4.73044342 6.10534605 6.4375 9.8125 C6.74389404 10.47685059 7.05028809 11.14120117 7.3659668 11.82568359 C16.00495745 31.11432658 17.10338736 51.87761975 17.19923019 72.71220589 C17.21125609 75.09837028 17.23075734 77.48437202 17.25234985 79.87046814 C17.31321784 86.64446518 17.36796657 93.41843351 17.40136719 100.19262695 C17.42246715 104.36398765 17.45786967 108.53502892 17.50212479 112.70620537 C17.51613977 114.27879492 17.52497384 115.8514407 17.52817917 117.42408943 C17.54899504 126.65024497 18.20251918 135.11634634 21 144 C20.34 144 19.68 144 19 144 C18.67 143.01 18.34 142.02 18 141 C17.34 140.67 16.68 140.34 16 140 C14.63610009 133.04940874 14.821243 125.95087827 14.77020454 118.89164162 C14.75349892 116.65243248 14.73023983 114.41337199 14.70530701 112.17424011 C14.63545106 105.81049376 14.57564047 99.44667658 14.52319336 93.08276367 C14.35049611 72.64260274 13.71291927 52.37770889 12 32 C11.01 31.67 10.02 31.34 9 31 C8.89042969 30.38253906 8.78085937 29.76507813 8.66796875 29.12890625 C7.69117431 23.9113945 6.42176753 18.99117116 4.6640625 13.984375 C3.89478406 11.68559 3.38582785 9.39213266 3 7 C2.01 6.67 1.02 6.34 0 6 C0 4.02 0 2.04 0 0 Z " fill="#31B9E1" transform="translate(332,120)"/>
<path d="M0 0 C0.99 0.33 1.98 0.66 3 1 C3.94517582 5.78514015 4.15100021 10.43665024 4.15771484 15.296875 C4.16279556 16.10741333 4.16787628 16.91795166 4.17311096 17.75305176 C4.18377009 19.50450581 4.19240755 21.25597309 4.19923019 23.00744629 C4.21107433 25.7820535 4.23053916 28.5565089 4.25234985 31.33105469 C4.31379511 39.21674547 4.36804255 47.10241731 4.40136719 54.98828125 C4.42232793 59.81936219 4.45763507 64.65016007 4.50212479 69.4810791 C4.51626535 71.31820341 4.52500283 73.15537773 4.52817917 74.99255371 C4.53309585 77.5630453 4.55627064 80.13278634 4.58349609 82.703125 C4.57898689 83.83482117 4.57898689 83.83482117 4.5743866 84.98937988 C4.64930639 89.76003302 5.65771068 92.87769734 8 97 C8.33 98.175625 8.66 99.35125 9 100.5625 C9.83044786 104.00253223 9.83044786 104.00253223 11.6875 106.6875 C13 109 13 109 12.58203125 111.14453125 C12.29392578 112.06298828 12.29392578 112.06298828 12 113 C10.8799529 111.38590473 9.77989426 109.75793717 8.6875 108.125 C8.07261719 107.22007812 7.45773437 106.31515625 6.82421875 105.3828125 C1.63353201 95.75725635 1.5452302 86.1297463 1.5234375 75.46875 C1.50908295 73.86705244 1.49331819 72.26536698 1.47622681 70.66369629 C1.43458857 66.46214224 1.40947588 62.26066298 1.38873291 58.05895996 C1.35281344 51.36580638 1.29082861 44.67284034 1.23024368 37.97987366 C1.21159504 35.67501822 1.19954797 33.37021171 1.18881226 31.06530762 C1.12400302 20.68497293 0.65960954 10.35906071 0 0 Z " fill="#CDFDFE" transform="translate(347,160)"/>
<path d="M0 0 C0.66 0 1.32 0 2 0 C2.11320121 5.45881412 1.96533529 10.831745 1.50488281 16.2734375 C0.94205254 23.90119668 0.86384185 31.48375896 0.86190033 39.12719727 C0.85748869 43.27237476 0.82639777 47.41740928 0.80078125 51.5625 C0.77049872 56.78911157 0.74768403 62.01547962 0.74951172 67.2421875 C0.75030556 71.51209885 0.72667286 75.78130014 0.6876297 80.05102539 C0.67729012 81.6582519 0.67555502 83.26556154 0.68328094 84.87280273 C0.73193379 96.10542274 0.3911743 108.17417866 -7.67315674 116.88867188 C-8.44101501 117.58541016 -9.20887329 118.28214844 -10 119 C-9.25 114.25 -9.25 114.25 -7 112 C-6.32707499 110.03309626 -6.32707499 110.03309626 -5.875 107.875 C-5.58625 106.59625 -5.2975 105.3175 -5 104 C-4.34 104 -3.68 104 -3 104 C-2.98969254 102.93892532 -2.97938507 101.87785065 -2.96876526 100.78462219 C-2.8705964 90.73749353 -2.76782551 80.69042083 -2.66066074 70.64338398 C-2.60572411 65.47931681 -2.55235437 60.31524378 -2.50268555 55.15112305 C-2.45460607 50.15845012 -2.40225393 45.16583791 -2.34705925 40.17323875 C-2.32683115 38.27768676 -2.30808864 36.38211825 -2.29092598 34.48653603 C-2.04172031 7.26055661 -2.04172031 7.26055661 0 0 Z " fill="#CDFCFD" transform="translate(125,152)"/>
<path d="M0 0 C2.33294775 -0.04241723 4.66702567 -0.04092937 7 0 C9.38207589 2.38207589 8.76157324 7.78582384 9 11 C9.10054688 12.09248047 9.10054688 12.09248047 9.203125 13.20703125 C9.88102036 26.25651694 3.56145648 36.57519399 -4.78125 46.015625 C-6.375 47.6875 -6.375 47.6875 -9 50 C-9.66 50 -10.32 50 -11 50 C-11 50.66 -11 51.32 -11 52 C-12.28913487 52.67154933 -13.58140204 53.33708859 -14.875 54 C-15.59429687 54.37125 -16.31359375 54.7425 -17.0546875 55.125 C-19 56 -19 56 -21 56 C-21 55.01 -21 54.02 -21 53 C-13.57142857 49.71428571 -13.57142857 49.71428571 -10 49 C-9.67 47.35 -9.34 45.7 -9 44 C-8.01 44 -7.02 44 -6 44 C-5.67 42.68 -5.34 41.36 -5 40 C-4.01 40 -3.02 40 -2 40 C-2 38.02 -2 36.04 -2 34 C-0.35 33.34 1.3 32.68 3 32 C3.04898437 31.33613281 3.09796875 30.67226563 3.1484375 29.98828125 C3.22320312 29.10527344 3.29796875 28.22226562 3.375 27.3125 C3.44460938 26.44238281 3.51421875 25.57226562 3.5859375 24.67578125 C4 22 4 22 5.03125 19.65625 C6.30882133 16.15323185 6.21636169 12.85953734 6.125 9.1875 C6.11597656 8.49462891 6.10695313 7.80175781 6.09765625 7.08789062 C6.07426157 5.39177605 6.03839641 3.69584129 6 2 C3.03 1.505 3.03 1.505 0 1 C0 0.67 0 0.34 0 0 Z " fill="#24B9E6" transform="translate(277,375)"/>
<path d="M0 0 C0.33 0 0.66 0 1 0 C1.06973897 9.99718462 1.1229321 19.99431066 1.15543652 29.99168968 C1.17104287 34.63468438 1.19218844 39.27751174 1.22631836 43.92041016 C1.25909226 48.40730035 1.27689079 52.89403031 1.28463173 57.38103104 C1.29014305 59.0865188 1.30090474 60.79199854 1.31719017 62.49741745 C1.4138329 73.04447609 1.15107219 82.51597403 -4 92 C-4.515625 92.495 -5.03125 92.99 -5.5625 93.5 C-7.17117852 94.89430702 -7.17117852 94.89430702 -7.3125 96.9375 C-8.41257716 100.23773149 -11.12989445 101.22053456 -14 103 C-15.79394446 104.62351109 -15.79394446 104.62351109 -17 106 C-17.66 105.67 -18.32 105.34 -19 105 C-18.49210937 104.52691406 -17.98421875 104.05382812 -17.4609375 103.56640625 C-6.87933646 93.40093559 -0.85744884 82.54080914 -0.45410156 67.66113281 C-0.39905789 64.50818448 -0.39224312 61.35648577 -0.390625 58.203125 C-0.37561287 56.51632118 -0.35887946 54.82953189 -0.34051514 53.14276123 C-0.29716919 48.74360408 -0.27691602 44.34464506 -0.26177979 39.9453125 C-0.24208939 35.43998657 -0.20013357 30.934871 -0.16015625 26.4296875 C-0.0852098 17.61984724 -0.03470427 8.81009035 0 0 Z " fill="#4ABCD7" transform="translate(125,176)"/>
<path d="M0 0 C4.875 0.875 4.875 0.875 6 2 C9.48880949 2.19382275 12.60169639 1.77675511 16 1 C15.67 2.32 15.34 3.64 15 5 C19.91442612 7.54515542 24.9039931 7.44153121 30.3125 7.625 C31.24384766 7.66367187 32.17519531 7.70234375 33.13476562 7.7421875 C35.42298407 7.83606313 37.71120295 7.92174509 40 8 C40 7.34 40 6.68 40 6 C42.64 6 45.28 6 48 6 C39.22104288 11.85263808 26.26002459 11.20761684 16.25390625 9.27734375 C9.97540166 7.48452221 4.95837187 5.26650603 0 1 C0 0.67 0 0.34 0 0 Z " fill="#19B9EC" transform="translate(208,425)"/>
<path d="M0 0 C4.51845238 1.50615079 6.70432836 5.04730221 9 9 C10.40643461 13.21930382 10.07473393 17.59069806 10 22 C10.67804688 22.17015625 11.35609375 22.3403125 12.0546875 22.515625 C20.79537304 24.79159298 29.00443488 27.79180783 37 32 C35.1875 32.625 35.1875 32.625 33 33 C32.01 32.34 31.02 31.68 30 31 C29.34 31.33 28.68 31.66 28 32 C27.67 31.34 27.34 30.68 27 30 C23.94192469 28.47096235 20.88725618 27.74090725 17.5625 27.0625 C13.6819081 26.25133949 10.47270887 24.95896398 7 23 C7 18.71 7 14.42 7 10 C6.34 10 5.68 10 5 10 C3.92474806 7.34771188 2.90543849 4.71631546 2 2 C1.34 2 0.68 2 0 2 C0 1.34 0 0.68 0 0 Z " fill="#23BAEB" transform="translate(251,44)"/>
<path d="M0 0 C5.88442625 4.88383555 11.29468338 10.14454205 16.6875 15.5625 C17.94916992 16.81836914 17.94916992 16.81836914 19.23632812 18.09960938 C20.04908203 18.91365234 20.86183594 19.72769531 21.69921875 20.56640625 C22.42971436 21.29802979 23.16020996 22.02965332 23.9128418 22.78344727 C28.56795593 27.72715778 31.8206027 31.87386212 32.125 38.875 C32.08375 39.57625 32.0425 40.2775 32 41 C30.0549 38.08235 29.54723683 36.37462715 29 33 C28.34 33 27.68 33 27 33 C24.3125 30.75 24.3125 30.75 22 28 C22.1875 25.6875 22.1875 25.6875 23 24 C22.34 24 21.68 24 21 24 C21 23.34 21 22.68 21 22 C19.68 22 18.36 22 17 22 C17 20.68 17 19.36 17 18 C16.01 18.33 15.02 18.66 14 19 C13.67 17.35 13.34 15.7 13 14 C12.34 14 11.68 14 11 14 C10.67 13.34 10.34 12.68 10 12 C9.01 11.67 8.02 11.34 7 11 C6.5 9 6.5 9 6 7 C5.01 6.67 4.02 6.34 3 6 C0 2.55555556 0 2.55555556 0 0 Z " fill="#28BCE6" transform="translate(366,280)"/>
<path d="M0 0 C1.65 0 3.3 0 5 0 C4.34 0.66 3.68 1.32 3 2 C2.6936141 4.73434962 2.4886664 7.38279821 2.375 10.125 C2.33632812 10.87910156 2.29765625 11.63320313 2.2578125 12.41015625 C2.16348969 14.27303184 2.08065338 16.13648255 2 18 C2.99 18.33 3.98 18.66 5 19 C5.12375 19.99 5.2475 20.98 5.375 22 C5.97841257 26.1149385 6.78448226 30.01580296 8 34 C8.99 34.66 9.98 35.32 11 36 C11 36.99 11 37.98 11 39 C11.66 39.33 12.32 39.66 13 40 C12.67 40.99 12.34 41.98 12 43 C13.32 43.33 14.64 43.66 16 44 C15.67 44.99 15.34 45.98 15 47 C11.02531843 43.37421475 8.69985589 40.02846806 6.3125 35.125 C5.73113281 33.95195312 5.14976562 32.77890625 4.55078125 31.5703125 C0.03611815 21.17635262 -0.16994775 11.15990235 0 0 Z " fill="#1FB8E3" transform="translate(187,374)"/>
<path d="M0 0 C0.5671875 0.22816406 1.134375 0.45632812 1.71875 0.69140625 C0.95691406 1.11099609 0.95691406 1.11099609 0.1796875 1.5390625 C-4.83845586 4.46161415 -9.52873127 7.43409548 -12.28125 12.69140625 C-12.98275912 16.1051454 -13.40017914 19.42397322 -13.6640625 22.8984375 C-14.28125 25.69140625 -14.28125 25.69140625 -16.3359375 27.078125 C-16.97789062 27.28050781 -17.61984375 27.48289062 -18.28125 27.69140625 C-18.28125 28.35140625 -18.28125 29.01140625 -18.28125 29.69140625 C-18.86132812 29.75199219 -19.44140625 29.81257813 -20.0390625 29.875 C-24.48217863 30.35157186 -28.88030423 30.90149291 -33.28125 31.69140625 C-29.94230258 28.35245883 -26.61331456 27.41047077 -22.03125 26.56640625 C-21.13921875 26.39882812 -20.2471875 26.23125 -19.328125 26.05859375 C-18.65265625 25.93742187 -17.9771875 25.81625 -17.28125 25.69140625 C-17.18328125 24.82257813 -17.0853125 23.95375 -16.984375 23.05859375 C-15.60132216 12.39954856 -12.80754244 7.61415238 -4.5 0.9140625 C-2.28125 -0.30859375 -2.28125 -0.30859375 0 0 Z " fill="#35B8DE" transform="translate(229.28125,40.30859375)"/>
<path d="M0 0 C0.33 0.66 0.66 1.32 1 2 C0.02062998 3.85742591 -0.96019156 5.71410447 -1.94921875 7.56640625 C-3.50366151 11.16647257 -3.98010188 14.81339952 -4.5078125 18.6796875 C-5 21 -5 21 -7 23 C-7.85334444 24.89756126 -7.85334444 24.89756126 -8.5625 27 C-9.29936964 29.07697972 -10.01375093 31.02750187 -11 33 C-11.22467831 34.53668865 -11.40796805 36.07968054 -11.5625 37.625 C-11.64628906 38.44226563 -11.73007813 39.25953125 -11.81640625 40.1015625 C-11.87699219 40.72804687 -11.93757812 41.35453125 -12 42 C-14.14228242 38.1356521 -13.98556754 36.35292329 -13 32 C-12.8865625 31.34 -12.773125 30.68 -12.65625 30 C-11.61947458 24.41736315 -9.61112048 19.64618078 -7.17578125 14.53125 C-5.88312607 11.74839101 -4.87421584 8.94054419 -4 6 C-3.34 6 -2.68 6 -2 6 C-1.34 4.02 -0.68 2.04 0 0 Z " fill="#2DBFEB" transform="translate(141,118)"/>
<path d="M0 0 C0.33 0 0.66 0 1 0 C1.03963867 0.57331055 1.07927734 1.14662109 1.12011719 1.73730469 C2.14040906 15.79027508 3.52818093 28.06271785 11.14453125 40.2578125 C11.56798828 41.12019531 11.56798828 41.12019531 12 42 C11.67 42.66 11.34 43.32 11 44 C7 39.375 7 39.375 7 36 C5.68 35.67 4.36 35.34 3 35 C-0.67564755 23.40420714 -0.31597847 12.03472877 0 0 Z " fill="#C4F9FC" transform="translate(186,374)"/>
<path d="M0 0 C5.28 0.33 10.56 0.66 16 1 C16 1.66 16 2.32 16 3 C18.31 3.33 20.62 3.66 23 4 C23.495 5.485 23.495 5.485 24 7 C24.66 7 25.32 7 26 7 C25.67 7.99 25.34 8.98 25 10 C24.278125 9.38125 23.55625 8.7625 22.8125 8.125 C16.51606858 3.36769626 10.63202565 3.53190243 3 4 C-3.24181191 5.04030198 -7.22969904 8.05985531 -12 12 C-12 10.35 -12 8.7 -12 7 C-10.02 6.67 -8.04 6.34 -6 6 C-6 5.34 -6 4.68 -6 4 C-4.02 3.67 -2.04 3.34 0 3 C0 2.01 0 1.02 0 0 Z " fill="#CFF9FD" transform="translate(229,36)"/>
<path d="M0 0 C0.99 0.33 1.98 0.66 3 1 C4.22024564 6.70010938 4.12702021 12.28871925 4.09765625 18.0859375 C4.0962413 19.14285797 4.09482635 20.19977844 4.09336853 21.28872681 C4.0877894 24.65084716 4.07524069 28.01289991 4.0625 31.375 C4.05748231 33.66015529 4.05291987 35.94531162 4.04882812 38.23046875 C4.03782679 43.8203354 4.02110944 49.41016287 4 55 C3.67 55 3.34 55 3 55 C3 42.79 3 30.58 3 18 C2.34 18 1.68 18 1 18 C0.67 12.06 0.34 6.12 0 0 Z " fill="#D9FCFE" transform="translate(347,160)"/>
<path d="M0 0 C0 4.12554008 -1.74888757 6.52141259 -4.375 9.625 C-6 11 -6 11 -8.28515625 12.2890625 C-17.07501067 17.82856788 -23.72334309 26.17002927 -27 36 C-27.37593066 37.9924325 -27.71979545 39.9918674 -28 42 C-28.33 42 -28.66 42 -29 42 C-29.66927364 34.77184468 -27.9718115 30.05627529 -24 24 C-20.23565014 19.47538707 -15.92446388 15.44893274 -11.6875 11.375 C-10.55287492 10.26550953 -9.41940147 9.15484005 -8.28710938 8.04296875 C-5.53781684 5.34821396 -2.77347193 2.66985331 0 0 Z " fill="#34B8DD" transform="translate(105,282)"/>
<path d="M0 0 C0.66 0.33 1.32 0.66 2 1 C1.38511719 1.44730469 0.77023438 1.89460938 0.13671875 2.35546875 C-4.22784573 5.62019083 -7.34109704 8.18865179 -10 13 C-11.46287337 14.2720638 -12.92858502 15.54265475 -14.4453125 16.75 C-18.54287573 20.0445232 -21.40711988 22.93174508 -23 28 C-24.32 27.67 -25.64 27.34 -27 27 C-25.2562572 24.724115 -23.50541577 22.45435369 -21.75 20.1875 C-21.25886719 19.54490234 -20.76773438 18.90230469 -20.26171875 18.24023438 C-15.45585903 12.05669486 -15.45585903 12.05669486 -12 10 C-11.34 10 -10.68 10 -10 10 C-9.75507813 9.40703125 -9.51015625 8.8140625 -9.2578125 8.203125 C-7.79047891 5.63301274 -6.27707775 4.45470034 -3.875 2.75 C-3.15054688 2.22921875 -2.42609375 1.7084375 -1.6796875 1.171875 C-1.12539062 0.78515625 -0.57109375 0.3984375 0 0 Z " fill="#32BCE4" transform="translate(172,84)"/>
<path d="M0 0 C0.33 0 0.66 0 1 0 C1 3.63 1 7.26 1 11 C0.34 11 -0.32 11 -1 11 C-1 11.66 -1 12.32 -1 13 C-2.375 14.625 -2.375 14.625 -4 16 C-4.66 16 -5.32 16 -6 16 C-6.33 17.65 -6.66 19.3 -7 21 C-8.98 21.33 -10.96 21.66 -13 22 C-12.61328125 21.49210937 -12.2265625 20.98421875 -11.828125 20.4609375 C-6.82472172 13.84752822 -2.71598069 7.87634401 0 0 Z " fill="#D0F8FB" transform="translate(284,400)"/>
<path d="M0 0 C0.66 0 1.32 0 2 0 C0.71984291 6.05165172 -1.38222208 11.40174336 -3.82421875 17.078125 C-5.27643313 20.6869501 -6.19611426 24.19981288 -7 28 C-7.33 28 -7.66 28 -8 28 C-8.2358396 22.22192976 -7.86783046 17.48675196 -6 12 C-5.34 12 -4.68 12 -4 12 C-3.855625 11.071875 -3.71125 10.14375 -3.5625 9.1875 C-3 6 -3 6 -2 3 C-1.34 3 -0.68 3 0 3 C0 2.01 0 1.02 0 0 Z " fill="#CDF8FD" transform="translate(135,124)"/>
<path d="M0 0 C-0.67804688 0.30292969 -1.35609375 0.60585937 -2.0546875 0.91796875 C-13.96557561 6.07487969 -13.96557561 6.07487969 -25 12.8125 C-28 15 -28 15 -30 15 C-30 14.01 -30 13.02 -30 12 C-29.01 12 -28.02 12 -27 12 C-27 11.34 -27 10.68 -27 10 C-26.34 10 -25.68 10 -25 10 C-25 9.34 -25 8.68 -25 8 C-19.39898888 5.44583521 -13.77937754 3.1191051 -8 1 C-7.071875 0.5875 -6.14375 0.175 -5.1875 -0.25 C-3 -1 -3 -1 0 0 Z " fill="#CAF9FD" transform="translate(202,69)"/>
<path d="M0 0 C6.33393082 -0.34548714 11.10261508 0.70657253 17 3 C17 3.66 17 4.32 17 5 C18.11375 5.103125 19.2275 5.20625 20.375 5.3125 C22.169375 5.6528125 22.169375 5.6528125 24 6 C24.99 7.485 24.99 7.485 26 9 C23 10 23 10 20.94140625 9.109375 C20.15636719 8.66078125 19.37132812 8.2121875 18.5625 7.75 C13.62000832 5.11837832 8.83487953 3.81029983 3.37109375 2.67578125 C2.58863281 2.45277344 1.80617188 2.22976562 1 2 C0.67 1.34 0.34 0.68 0 0 Z " fill="#C7FAFE" transform="translate(263,66)"/>
<path d="M0 0 C0 0.66 0 1.32 0 2 C-0.99 2.33 -1.98 2.66 -3 3 C-3.33 3.66 -3.66 4.32 -4 5 C-7.18020613 6.06006871 -9.46464771 6.12919606 -12.8046875 6.1328125 C-13.94550781 6.13410156 -15.08632812 6.13539063 -16.26171875 6.13671875 C-18.05029297 6.13091797 -18.05029297 6.13091797 -19.875 6.125 C-21.65197266 6.13080078 -21.65197266 6.13080078 -23.46484375 6.13671875 C-25.17994141 6.13478516 -25.17994141 6.13478516 -26.9296875 6.1328125 C-27.97366699 6.13168457 -29.01764648 6.13055664 -30.09326172 6.12939453 C-32.83664393 6.00727186 -35.32939228 5.6192268 -38 5 C-38 4.34 -38 3.68 -38 3 C-36.76443359 3.23783203 -36.76443359 3.23783203 -35.50390625 3.48046875 C-24.68667937 5.08436081 -14.72604449 4.58210365 -4.44140625 0.875 C-2 0 -2 0 0 0 Z " fill="#A1EFFD" transform="translate(260,430)"/>
<path d="M0 0 C5.2611618 0.38496306 9.31340712 2.22615048 13 6 C13 6.99 13 7.98 13 9 C14.32 9 15.64 9 17 9 C17 9.66 17 10.32 17 11 C17.99 11 18.98 11 20 11 C20.33 12.98 20.66 14.96 21 17 C20.01 16.67 19.02 16.34 18 16 C17.3125 13.9375 17.3125 13.9375 17 12 C16.34 12 15.68 12 15 12 C15 11.34 15 10.68 15 10 C14.45859375 9.9175 13.9171875 9.835 13.359375 9.75 C10.17055514 8.73633541 7.9328523 6.987298 5.25 5 C4.26515625 4.278125 3.2803125 3.55625 2.265625 2.8125 C1.51796875 2.214375 0.7703125 1.61625 0 1 C0 0.67 0 0.34 0 0 Z " fill="#BCF1FA" transform="translate(295,80)"/>
<path d="M0 0 C0.66 0.33 1.32 0.66 2 1 C1.79503906 1.556875 1.59007812 2.11375 1.37890625 2.6875 C-0.43878495 7.83617554 -1.50570547 12.56276016 -2 18 C-5.82989106 19.80230168 -8.78121808 20.19622241 -13 20 C-12.67 19.34 -12.34 18.68 -12 18 C-11.01 18 -10.02 18 -9 18 C-8.67 17.34 -8.34 16.68 -8 16 C-8 16.66 -8 17.32 -8 18 C-7.34 17.67 -6.68 17.34 -6 17 C-5.38339182 15.04929298 -5.38339182 15.04929298 -5 12.75 C-4.30877964 9.31035584 -3.45097326 6.21286937 -2 3 C-1.34 3 -0.68 3 0 3 C0 2.01 0 1.02 0 0 Z " fill="#C5F8FD" transform="translate(215,48)"/>
<path d="M0 0 C6.33514118 2.86999089 11.744023 6.08393935 17.08984375 10.546875 C19.03998332 12.19260853 19.03998332 12.19260853 22 13 C22 13.66 22 14.32 22 15 C22.66 15 23.32 15 24 15 C24 15.66 24 16.32 24 17 C23.01 17 22.02 17 21 17 C21 16.34 21 15.68 21 15 C19.35 15 17.7 15 16 15 C16 14.34 16 13.68 16 13 C15.38125 12.731875 14.7625 12.46375 14.125 12.1875 C12 11 12 11 10 8 C7.94074861 7.27617533 7.94074861 7.27617533 6 7 C6 6.01 6 5.02 6 4 C4.02 3.34 2.04 2.68 0 2 C0 1.34 0 0.68 0 0 Z " fill="#20B7DC" transform="translate(288,77)"/>
<path d="M0 0 C2.64 0 5.28 0 8 0 C1.9519205 4.032053 -4.68960846 4.32524396 -11.75 4.25 C-12.49121094 4.25773437 -13.23242188 4.26546875 -13.99609375 4.2734375 C-18.12546012 4.25861033 -20.21575994 3.89212003 -24 2 C-16.08 2 -8.16 2 0 2 C0 1.34 0 0.68 0 0 Z " fill="#26B4DD" transform="translate(248,431)"/>
<path d="M0 0 C1.32 0 2.64 0 4 0 C9 5.11363636 9 5.11363636 9 9 C10.32 9.33 11.64 9.66 13 10 C13 11.32 13 12.64 13 14 C13.66 14 14.32 14 15 14 C14.67 15.32 14.34 16.64 14 18 C13.32453125 17.11957031 12.6490625 16.23914063 11.953125 15.33203125 C11.05210954 14.15883404 10.1510664 12.98565808 9.25 11.8125 C8.58484375 10.9452832 8.58484375 10.9452832 7.90625 10.06054688 C5.30669974 6.67730867 2.67770532 3.32210637 0 0 Z " fill="#BAF2FB" transform="translate(316,98)"/>
<path d="M0 0 C0 0.66 0 1.32 0 2 C-0.66 2 -1.32 2 -2 2 C-2.33 2.99 -2.66 3.98 -3 5 C-3.9075 5.28875 -4.815 5.5775 -5.75 5.875 C-9.17561827 6.78255294 -9.17561827 6.78255294 -11.5 9.625 C-14 12 -14 12 -17.3125 12.3125 C-18.6428125 12.1578125 -18.6428125 12.1578125 -20 12 C-15.68759349 7.14854267 -6.70663417 0 0 0 Z " fill="#3AC0E9" transform="translate(194,72)"/>
<path d="M0 0 C4.51845238 1.50615079 6.70432836 5.04730221 9 9 C10.40643461 13.21930382 10.07473393 17.59069806 10 22 C9.34 22 8.68 22 8 22 C7.67 18.04 7.34 14.08 7 10 C6.34 10 5.68 10 5 10 C3.92474806 7.34771188 2.90543849 4.71631546 2 2 C1.34 2 0.68 2 0 2 C0 1.34 0 0.68 0 0 Z " fill="#37B8DB" transform="translate(251,44)"/>
<path d="M0 0 C0.99 0 1.98 0 3 0 C4.00013174 4.14241416 4.11516542 8.01480304 4.09765625 12.26953125 C4.0962413 12.95053391 4.09482635 13.63153656 4.09336853 14.33317566 C4.08780298 16.49299647 4.07525703 18.65271089 4.0625 20.8125 C4.05748054 22.28320162 4.05291841 23.75390488 4.04882812 25.22460938 C4.03784488 28.8164404 4.02060422 32.4082098 4 36 C3.67 36 3.34 36 3 36 C2.98018066 35.26475098 2.96036133 34.52950195 2.93994141 33.77197266 C2.8437501 30.38933373 2.73445743 27.00723463 2.625 23.625 C2.5940625 22.46871094 2.563125 21.31242187 2.53125 20.12109375 C2.29730173 13.21961964 1.63321078 6.71516393 0 0 Z " fill="#CDFCFE" transform="translate(396,312)"/>
<path d="M0 0 C0.99 0.495 0.99 0.495 2 1 C2 2.65 2 4.3 2 6 C2.99 6.33 3.98 6.66 5 7 C6.06652192 9.30368736 7.06421005 11.64018187 8 14 C8.99 15.485 8.99 15.485 10 17 C9.625 19.1875 9.625 19.1875 9 21 C7.86676537 19.29711802 6.74377765 17.58741477 5.625 15.875 C4.99851562 14.92367188 4.37203125 13.97234375 3.7265625 12.9921875 C1.17020972 8.56194716 0 5.12647037 0 0 Z " fill="#B7F6FC" transform="translate(350,252)"/>
<path d="M0 0 C-1.65863505 4.32504836 -4.871041 7.09418825 -8.125 10.25 C-8.68832031 10.80429687 -9.25164062 11.35859375 -9.83203125 11.9296875 C-11.21686028 13.29104485 -12.60783204 14.64614859 -14 16 C-14.33 15.01 -14.66 14.02 -15 13 C-14.34 13 -13.68 13 -13 13 C-13 12.34 -13 11.68 -13 11 C-12.34 11 -11.68 11 -11 11 C-10.34 9.35 -9.68 7.7 -9 6 C-8.34 6 -7.68 6 -7 6 C-6.67 5.01 -6.34 4.02 -6 3 C-3.86928565 0.38503239 -3.5167455 0 0 0 Z " fill="#C8F6FE" transform="translate(115,271)"/>
<path d="M0 0 C0.86476686 2.42134721 1.1422798 3.60873054 0.25 6.0625 C-1 8 -1 8 -2.5625 9.5 C-4.17117852 10.89430702 -4.17117852 10.89430702 -4.3125 12.9375 C-5.41257716 16.23773149 -8.12989445 17.22053456 -11 19 C-12.79394446 20.62351109 -12.79394446 20.62351109 -14 22 C-14.66 21.67 -15.32 21.34 -16 21 C-15.49210937 20.52691406 -14.98421875 20.05382812 -14.4609375 19.56640625 C-8.39469603 13.73872484 -3.65856598 7.59066961 0 0 Z " fill="#2DB8DF" transform="translate(122,260)"/>
<path d="M0 0 C0.66 0 1.32 0 2 0 C1.86287598 0.56380371 1.72575195 1.12760742 1.58447266 1.70849609 C-0.04877611 9.01498138 -0.42518087 16.15676004 -0.625 23.625 C-0.66367188 24.81996094 -0.70234375 26.01492188 -0.7421875 27.24609375 C-0.83555786 30.16391736 -0.92133578 33.08174921 -1 36 C-1.33 36 -1.66 36 -2 36 C-2.02917237 31.47918034 -2.0468568 26.95838512 -2.0625 22.4375 C-2.07087891 21.16068359 -2.07925781 19.88386719 -2.08789062 18.56835938 C-2.09111328 17.32763672 -2.09433594 16.08691406 -2.09765625 14.80859375 C-2.10289307 13.67220459 -2.10812988 12.53581543 -2.11352539 11.36499023 C-1.79050909 1.79050909 -1.79050909 1.79050909 0 0 Z " fill="#CBFCFE" transform="translate(76,312)"/>
<path d="M0 0 C0 0.33 0 0.66 0 1 C-0.97839844 1.06316406 -1.95679688 1.12632813 -2.96484375 1.19140625 C-12.05080327 2.04014387 -17.1983372 3.54359927 -24 10 C-24.33 10 -24.66 10 -25 10 C-25 8.35 -25 6.7 -25 5 C-23.02 4.67 -21.04 4.34 -19 4 C-19 3.34 -19 2.68 -19 2 C-12.53991163 0.04978464 -6.7281627 -0.22262303 0 0 Z " fill="#BFF6FE" transform="translate(242,38)"/>
<path d="M0 0 C1.98 0.66 3.96 1.32 6 2 C6 2.99 6 3.98 6 5 C6.61875 5.103125 7.2375 5.20625 7.875 5.3125 C10 6 10 6 12 9 C12 9.99 12 10.98 12 12 C12.66 12 13.32 12 14 12 C13.67 12.99 13.34 13.98 13 15 C11.01804354 12.87754286 9.03935743 10.75219732 7.0625 8.625 C6.49853516 8.02171875 5.93457031 7.4184375 5.35351562 6.796875 C4.81533203 6.21679688 4.27714844 5.63671875 3.72265625 5.0390625 C3.22515869 4.50490723 2.72766113 3.97075195 2.21508789 3.42041016 C1 2 1 2 0 0 Z " fill="#C4F9FD" transform="translate(382,295)"/>
<path d="M0 0 C0.84304688 1.07314453 0.84304688 1.07314453 1.703125 2.16796875 C3.97236686 4.96592853 6.33051154 7.64394655 8.75 10.3125 C9.54921875 11.19550781 10.3484375 12.07851563 11.171875 12.98828125 C11.77515625 13.65214844 12.3784375 14.31601562 13 15 C12.01 15.495 12.01 15.495 11 16 C10.34 15.67 9.68 15.34 9 15 C9 14.34 9 13.68 9 13 C8.05125 12.835 7.1025 12.67 6.125 12.5 C3 11 3 11 2.15625 9.0859375 C1.67381375 7.07815136 1.32880438 5.03858716 1 3 C0.34 3 -0.32 3 -1 3 C-0.67 2.01 -0.34 1.02 0 0 Z " fill="#28BBE9" transform="translate(353,264)"/>
<path d="M0 0 C0.66 0 1.32 0 2 0 C3.36363208 1.97946592 4.69418644 3.9819245 6 6 C7.62351109 7.79394446 7.62351109 7.79394446 9 9 C8.67 9.66 8.34 10.32 8 11 C7.01 11.33 6.02 11.66 5 12 C4.67 11.01 4.34 10.02 4 9 C3.01 8.67 2.02 8.34 1 8 C1.20625 7.38125 1.4125 6.7625 1.625 6.125 C1.74875 5.42375 1.8725 4.7225 2 4 C1.34 3.34 0.68 2.68 0 2 C0 1.34 0 0.68 0 0 Z " fill="#10BAF9" transform="translate(364,280)"/>
<path d="M0 0 C0.99 0.33 1.98 0.66 3 1 C2.20335937 2.051875 2.20335937 2.051875 1.390625 3.125 C-2.6681622 8.57621784 -6.19540355 13.80651616 -9 20 C-10.04449911 16.86650268 -9.93423645 16.01031744 -9 13 C-8.34 13 -7.68 13 -7 13 C-6.7525 12.319375 -6.505 11.63875 -6.25 10.9375 C-2.77777778 2.77777778 -2.77777778 2.77777778 0 0 Z " fill="#AFF4FE" transform="translate(148,104)"/>
<path d="M0 0 C1.65 0 3.3 0 5 0 C4.34 0.66 3.68 1.32 3 2 C2.63105418 4.03060659 2.63105418 4.03060659 2.5859375 6.3515625 C2.54726562 7.20234375 2.50859375 8.053125 2.46875 8.9296875 C2.4378125 9.81914062 2.406875 10.70859375 2.375 11.625 C2.33632812 12.5221875 2.29765625 13.419375 2.2578125 14.34375 C2.16340643 16.5622927 2.07783252 18.78082403 2 21 C1.67 21 1.34 21 1 21 C0.06145994 13.96094956 -0.10808032 7.09727428 0 0 Z " fill="#40C0D6" transform="translate(187,374)"/>
<path d="M0 0 C0.33 0.66 0.66 1.32 1 2 C0.328125 3.6640625 0.328125 3.6640625 -0.75 5.625 C-2.24870807 8.45760975 -3.50335753 11.22549691 -4.5625 14.25 C-5.63838056 17.25300727 -6.87531189 19.57178502 -9 22 C-8.39363767 16.23955788 -6.24341721 11.27985631 -4 6 C-3.34 6 -2.68 6 -2 6 C-1.34 4.02 -0.68 2.04 0 0 Z " fill="#2AB4DD" transform="translate(141,118)"/>
<path d="M0 0 C0.99 0.33 1.98 0.66 3 1 C3 1.66 3 2.32 3 3 C4.98 2.67 6.96 2.34 9 2 C9 2.66 9 3.32 9 4 C5.53846154 7 5.53846154 7 3 7 C2.67 7.99 2.34 8.98 2 10 C1 7 1 7 2 4 C1.01 3.67 0.02 3.34 -1 3 C-0.67 2.01 -0.34 1.02 0 0 Z " fill="#D6F7F8" transform="translate(153,90)"/>
<path d="M0 0 C2.375 0.5 2.375 0.5 5 2 C7.0823751 7.83065028 7.5212754 13.85216827 8 20 C7.34 20 6.68 20 6 20 C5.85304688 18.71416016 5.85304688 18.71416016 5.703125 17.40234375 C4.82358621 10.67690491 3.90089009 5.5912758 0 0 Z " fill="#BDF7FD" transform="translate(255,46)"/>
<path d="M0 0 C0.66 0.33 1.32 0.66 2 1 C1.0925 1.721875 0.185 2.44375 -0.75 3.1875 C-2.8526984 4.92579634 -4.35402357 6.45057545 -6.0625 8.625 C-8.14134006 11.17325555 -10.11112333 12.47531509 -13 14 C-10.51712435 7.90566886 -4.96608691 4.04216377 0 0 Z " fill="#0AC0EE" transform="translate(115,275)"/>
<path d="M0 0 C4.95 1.98 4.95 1.98 10 4 C10 4.66 10 5.32 10 6 C11.65 6 13.3 6 15 6 C15 6.33 15 6.66 15 7 C12.03 7 9.06 7 6 7 C5.34 5.68 4.68 4.36 4 3 C1.94999129 2.19471111 1.94999129 2.19471111 0 2 C0 1.34 0 0.68 0 0 Z " fill="#D2F9FC" transform="translate(212,429)"/>
<path d="M0 0 C3.85025879 0.60355408 6.86101159 1.76772603 10.3125 3.5625 C11.19550781 4.01753906 12.07851563 4.47257812 12.98828125 4.94140625 C13.65214844 5.29074219 14.31601562 5.64007813 15 6 C13.1875 6.625 13.1875 6.625 11 7 C10.01 6.34 9.02 5.68 8 5 C7.01 5.495 7.01 5.495 6 6 C5.67 5.34 5.34 4.68 5 4 C3.35636866 3.27840576 1.68949614 2.60648579 0 2 C0 1.34 0 0.68 0 0 Z " fill="#2FBCE6" transform="translate(273,70)"/>
<path d="M0 0 C0 0.66 0 1.32 0 2 C-0.99 2.33 -1.98 2.66 -3 3 C-3.33 3.66 -3.66 4.32 -4 5 C-7.47325181 6.1577506 -10.36067448 6.06866652 -14 6 C-10.292996 2.7563715 -5.02493834 0 0 0 Z " fill="#BCF7FD" transform="translate(260,430)"/>
<path d="M0 0 C1.875 0.1875 1.875 0.1875 4 1 C6.09242143 4.6617375 6.19324053 7.84532871 6 12 C0 3 0 3 0 0 Z " fill="#D4F7FD" transform="translate(331,116)"/>
<path d="M0 0 C0.99 0.33 1.98 0.66 3 1 C3 1.99 3 2.98 3 4 C3.66 4.33 4.32 4.66 5 5 C4.67 5.99 4.34 6.98 4 8 C5.32 8.33 6.64 8.66 8 9 C7.67 9.99 7.34 10.98 7 12 C1.33064516 6.62903226 1.33064516 6.62903226 0 3 C0 2.01 0 1.02 0 0 Z " fill="#2BBCE5" transform="translate(195,409)"/>
<path d="M0 0 C8.44646925 6.15034169 8.44646925 6.15034169 12 10 C10.68 10 9.36 10 8 10 C8 9.34 8 8.68 8 8 C7.21625 7.690625 6.4325 7.38125 5.625 7.0625 C3 6 3 6 1 5 C0.375 2.4375 0.375 2.4375 0 0 Z " fill="#B8F6FE" transform="translate(200,419)"/>
<path d="M0 0 C1.98 0.99 1.98 0.99 4 2 C4 2.99 4 3.98 4 5 C4.66 5 5.32 5 6 5 C6.33 8.3 6.66 11.6 7 15 C5.32574184 12.48861275 4.13977993 10.24284394 2.9375 7.5 C2.59589844 6.7265625 2.25429688 5.953125 1.90234375 5.15625 C1.19512275 3.46626736 0.57932744 1.73798233 0 0 Z " fill="#C8F9FD" transform="translate(337,129)"/>
<path d="M0 0 C1.32 0.33 2.64 0.66 4 1 C1.36 3.64 -1.28 6.28 -4 9 C-4.66 7.68 -5.32 6.36 -6 5 C-4.68 5 -3.36 5 -2 5 C-1.34 3.35 -0.68 1.7 0 0 Z " fill="#C7F8FE" transform="translate(88,295)"/>
<path d="M0 0 C3.11954738 0.33724836 4.6209965 0.6209965 6.875 2.875 C7.24625 3.57625 7.6175 4.2775 8 5 C7.67 5.99 7.34 6.98 7 8 C5.83035398 6.8572081 4.66435444 5.71068285 3.5 4.5625 C2.8503125 3.92441406 2.200625 3.28632813 1.53125 2.62890625 C0 1 0 1 0 0 Z " fill="#C5F8FD" transform="translate(360,273)"/>
<path d="M0 0 C3.375 0.3125 3.375 0.3125 7 1 C7.66 1.99 8.32 2.98 9 4 C6 5 6 5 2.8125 3.5625 C1.884375 3.046875 0.95625 2.53125 0 2 C0 1.34 0 0.68 0 0 Z " fill="#D1FAFD" transform="translate(280,71)"/>
<path d="M0 0 C0.33 0 0.66 0 1 0 C1 3.96 1 7.92 1 12 C1.66 12 2.32 12 3 12 C3 13.32 3 14.64 3 16 C2.01 16 1.02 16 0 16 C0 10.72 0 5.44 0 0 Z " fill="#0BC0EC" transform="translate(189,376)"/>
<path d="M0 0 C1.32 0.33 2.64 0.66 4 1 C4 2.32 4 3.64 4 5 C4.66 5 5.32 5 6 5 C5.67 6.32 5.34 7.64 5 9 C4.16094435 7.87926138 3.32892169 6.75325453 2.5 5.625 C2.0359375 4.99851562 1.571875 4.37203125 1.09375 3.7265625 C0 2 0 2 0 0 Z " fill="#C7F7FE" transform="translate(325,107)"/>
<path d="M0 0 C1.32 0 2.64 0 4 0 C4 0.66 4 1.32 4 2 C4.99 2 5.98 2 7 2 C7.33 3.98 7.66 5.96 8 8 C7.01 7.67 6.02 7.34 5 7 C4.3125 4.9375 4.3125 4.9375 4 3 C3.34 3 2.68 3 2 3 C2 2.34 2 1.68 2 1 C1.34 0.67 0.68 0.34 0 0 Z " fill="#CDF8FE" transform="translate(308,89)"/>
<path d="M0 0 C0.99 0.33 1.98 0.66 3 1 C1.875 3 1.875 3 0 5 C-3.1875 5.25 -3.1875 5.25 -6 5 C-2.25 1.125 -2.25 1.125 0 0 Z " fill="#24BCE2" transform="translate(180,79)"/>
<path d="M0 0 C0.33 0 0.66 0 1 0 C0.67 2.31 0.34 4.62 0 7 C-1.98 7.33 -3.96 7.66 -6 8 C-5.02471263 6.66382648 -4.04466681 5.3311249 -3.0625 4 C-2.24458984 2.88625 -2.24458984 2.88625 -1.41015625 1.75 C-0.94480469 1.1725 -0.47945313 0.595 0 0 Z " fill="#BAF5FE" transform="translate(277,414)"/>
<path d="M0 0 C1.32 0 2.64 0 4 0 C4 0.99 4 1.98 4 3 C5.32 3.33 6.64 3.66 8 4 C7.67 5.32 7.34 6.64 7 8 C5.83035398 6.8572081 4.66435444 5.71068285 3.5 4.5625 C2.8503125 3.92441406 2.200625 3.28632813 1.53125 2.62890625 C0 1 0 1 0 0 Z " fill="#C4F8FE" transform="translate(368,281)"/>
<path d="M0 0 C0 3 0 3 -1 6 C-3.06640625 6.73046875 -3.06640625 6.73046875 -5.5625 7.1875 C-6.38878906 7.34605469 -7.21507812 7.50460937 -8.06640625 7.66796875 C-9.02353516 7.83232422 -9.02353516 7.83232422 -10 8 C-9.67 7.34 -9.34 6.68 -9 6 C-6.4375 5.375 -6.4375 5.375 -4 5 C-4 4.34 -4 3.68 -4 3 C-2 1.375 -2 1.375 0 0 Z " fill="#B1EFFB" transform="translate(270,422)"/>
<path d="M0 0 C0.66 0 1.32 0 2 0 C1.58578031 4.83256305 -0.46413986 6.82679218 -4 10 C-3.43697042 6.05879291 -2.3208055 3.2491277 0 0 Z " fill="#C1F5FC" transform="translate(119,261)"/>
<path d="M0 0 C4.31392226 0.4793247 6.16569547 1.7457985 9 5 C8.01 5.495 8.01 5.495 7 6 C5.83054208 5.19152271 4.66449539 4.37810888 3.5 3.5625 C2.8503125 3.11003906 2.200625 2.65757812 1.53125 2.19140625 C1.0259375 1.79824219 0.520625 1.40507812 0 1 C0 0.67 0 0.34 0 0 Z " fill="#2CBCE5" transform="translate(208,425)"/>
<path d="M0 0 C0.99 0.33 1.98 0.66 3 1 C0.69 3.31 -1.62 5.62 -4 8 C-4.33 6.68 -4.66 5.36 -5 4 C-4.01 4 -3.02 4 -2 4 C-1.34 2.68 -0.68 1.36 0 0 Z " fill="#CAF7FF" transform="translate(97,287)"/>
<path d="M0 0 C0.66 0 1.32 0 2 0 C3.38226016 2.76452033 3.09525387 5.0461363 3.0625 8.125 C3.05347656 9.22070312 3.04445313 10.31640625 3.03515625 11.4453125 C3.02355469 12.28835937 3.01195312 13.13140625 3 14 C2.67 14 2.34 14 2 14 C1.34 9.38 0.68 4.76 0 0 Z " fill="#B6F4FC" transform="translate(344,146)"/>
<path d="M0 0 C2.475 0.99 2.475 0.99 5 2 C5 2.66 5 3.32 5 4 C5.66 4 6.32 4 7 4 C7 4.66 7 5.32 7 6 C6.01 6 5.02 6 4 6 C4 5.34 4 4.68 4 4 C2.35 4 0.7 4 -1 4 C-0.67 2.68 -0.34 1.36 0 0 Z " fill="#3BC4E8" transform="translate(305,88)"/>
<path d="M0 0 C0.99 0.33 1.98 0.66 3 1 C1.02 3.31 -0.96 5.62 -3 8 C-3.33 7.01 -3.66 6.02 -4 5 C-2.0625 2.3125 -2.0625 2.3125 0 0 Z " fill="#C8F8FE" transform="translate(148,104)"/>
<path d="M0 0 C3.28788824 3.11016455 5.83735988 6.01618925 8 10 C7.34 10 6.68 10 6 10 C6 9.34 6 8.68 6 8 C5.01 7.67 4.02 7.34 3 7 C0 2.66666667 0 2.66666667 0 0 Z " fill="#2DB3D9" transform="translate(319,102)"/>
<path d="M0 0 C3.73639216 1.24546405 4.18756513 2.63404953 6 6 C4.68 6 3.36 6 2 6 C2 5.34 2 4.68 2 4 C1.34 4 0.68 4 0 4 C0 2.68 0 1.36 0 0 Z " fill="#2CB3E6" transform="translate(313,96)"/>
<path d="M0 0 C0.33 0.66 0.66 1.32 1 2 C0.22265625 3.9453125 0.22265625 3.9453125 -0.9375 6.125 C-1.31777344 6.84945312 -1.69804687 7.57390625 -2.08984375 8.3203125 C-2.39019531 8.87460938 -2.69054687 9.42890625 -3 10 C-3.66 10 -4.32 10 -5 10 C-4.67 8.68 -4.34 7.36 -4 6 C-3.34 6 -2.68 6 -2 6 C-1.34 4.02 -0.68 2.04 0 0 Z " fill="#39BCE3" transform="translate(141,118)"/>
<path d="M0 0 C2.64 0 5.28 0 8 0 C8.33 0.99 8.66 1.98 9 3 C2.84765625 2.4140625 2.84765625 2.4140625 1 2 C0.67 1.34 0.34 0.68 0 0 Z " fill="#B9F5FD" transform="translate(263,66)"/>
<path d="M0 0 C3.16115776 1.36983503 3.9927092 1.9890638 6 5 C6.125 7.6875 6.125 7.6875 6 10 C4.66666667 7.33333333 3.33333333 4.66666667 2 2 C1.34 2 0.68 2 0 2 C0 1.34 0 0.68 0 0 Z " fill="#24B9E1" transform="translate(251,44)"/>
<path d="M0 0 C0.99 0 1.98 0 3 0 C3 0.66 3 1.32 3 2 C2.34 2 1.68 2 1 2 C1 3.65 1 5.3 1 7 C0.01 7.495 0.01 7.495 -1 8 C-1.04241723 5.66705225 -1.04092937 3.33297433 -1 1 C-0.67 0.67 -0.34 0.34 0 0 Z " fill="#11BAEE" transform="translate(276,408)"/>
<path d="M0 0 C1.14926266 0.95421808 2.29430541 1.91352045 3.4375 2.875 C4.07558594 3.40867187 4.71367187 3.94234375 5.37109375 4.4921875 C7 6 7 6 8 8 C4.11137013 6.73882275 2.10624401 5.54735833 0 2 C0 1.34 0 0.68 0 0 Z " fill="#2FB9DE" transform="translate(366,280)"/>
</svg>
