<?xml version="1.0" encoding="UTF-8"?>
<svg version="1.1" xmlns="http://www.w3.org/2000/svg" width="400" height="400">
<path d="M0 0 C0.89107968 -0.00445784 1.78215935 -0.00891569 2.70024145 -0.01350862 C3.67512317 -0.01332426 4.65000489 -0.01313989 5.65442848 -0.01294994 C6.69335766 -0.01662663 7.73228685 -0.02030332 8.80269873 -0.02409142 C12.29540471 -0.03513306 15.78808095 -0.03897298 19.28080177 -0.04278088 C21.78081291 -0.04904532 24.28082311 -0.0556921 26.78083229 -0.0626936 C34.29283237 -0.08192597 41.80482455 -0.09252426 49.31684202 -0.10142139 C52.8585061 -0.10580808 56.40016869 -0.11117405 59.94183159 -0.11641026 C71.72348088 -0.13342413 83.50512925 -0.14791548 95.28678894 -0.155159 C98.34338698 -0.15706876 101.39998501 -0.15898911 104.45658302 -0.16094494 C105.21624605 -0.16142868 105.97590908 -0.16191242 106.7585922 -0.16241082 C119.04826006 -0.17070051 131.33783025 -0.19601872 143.62745552 -0.22852562 C156.25893031 -0.2616628 168.8903556 -0.27961391 181.52187407 -0.28280324 C188.60822837 -0.28496261 195.6944404 -0.29362637 202.78075218 -0.31926441 C209.45383941 -0.34335209 216.12662744 -0.34675547 222.79976463 -0.33650303 C225.2417581 -0.33600889 227.68376436 -0.34229319 230.12571907 -0.35605907 C242.58270808 -0.42232096 253.79068562 -0.42475169 265.54886818 4.13422108 C266.61875669 4.52242873 267.68864521 4.91063639 268.79095459 5.31060791 C291.21223252 13.66041738 307.47548584 31.92710831 317.60941505 53.03314686 C319.78751344 57.90443446 321.30416467 62.94795645 322.54886818 68.13422108 C322.72436793 68.80641493 322.89986769 69.47860878 323.08068562 70.17117214 C323.77080524 74.53882352 323.69688406 78.86204419 323.6960392 83.27737904 C323.69971589 84.30828997 323.70339258 85.33920091 323.70718068 86.40135157 C323.71820673 89.86097848 323.72205959 93.32057533 323.72587013 96.78021717 C323.73213573 99.25904911 323.73878262 101.73788011 323.74578285 104.21671009 C323.76500223 111.66007326 323.77561127 119.10342845 323.78451064 126.54680914 C323.78889933 130.05746005 323.79426474 133.56810946 323.79949951 137.07875919 C323.81651125 148.75922234 323.8310025 160.43968457 323.83824825 172.1201582 C323.84015796 175.14942266 323.84207832 178.17868711 323.84403419 181.20795155 C323.84451794 181.96080553 323.84500168 182.71365952 323.84550007 183.48932727 C323.85378946 195.66832546 323.87910812 207.8472251 323.91161487 220.02618031 C323.94476262 232.5480804 323.96270408 245.06993055 323.96589249 257.59187472 C323.96805079 264.61508938 323.97669878 271.63816043 324.00235367 278.66133213 C324.02645875 285.27531002 324.02983814 291.88907717 324.01959229 298.50310612 C324.01909855 300.92210467 324.02537084 303.3411162 324.03914833 305.76007557 C324.13257238 323.14480467 322.7129224 337.47116199 314.54886818 353.13422108 C314.06933693 354.08683826 313.58980568 355.03945545 313.09574318 356.02093983 C301.87033814 376.86422831 282.10642855 391.20948222 259.82621193 398.22406483 C255.48832207 399.42874699 251.48568584 400.25793819 246.97748184 400.26844215 C246.08502782 400.2729 245.19257379 400.27735784 244.2730757 400.28195077 C243.30178894 400.28176641 242.33050218 400.28158205 241.32978249 400.2813921 C240.29070444 400.28506879 239.2516264 400.28874547 238.18106115 400.29253358 C234.69379521 400.30356021 231.20655909 400.30741259 227.71927834 400.31122303 C225.22074222 400.31748859 222.72220703 400.32413547 220.22367287 400.33113575 C212.72098398 400.35035557 205.21830301 400.36096421 197.71559674 400.36986354 C194.17705229 400.37425214 190.63850933 400.37961757 187.09996605 400.38485241 C175.3268566 400.40186417 163.55374806 400.41635547 151.7806282 400.42360115 C148.72730063 400.42551086 145.67397307 400.42743122 142.62064552 400.42938709 C141.4823927 400.4301127 141.4823927 400.4301127 140.32114486 400.43085297 C128.04514915 400.43914252 115.76925121 400.46446142 103.49329813 400.49696777 C90.87195696 400.53011437 78.25066534 400.54805687 65.62928045 400.55124539 C58.55017493 400.55340379 51.47121188 400.56205329 44.39214897 400.58770657 C37.72561152 400.61180985 31.05937356 400.61519179 24.39278603 400.60494518 C21.95443686 400.6044514 19.51607481 400.61072495 17.07776451 400.62450123 C1.1706836 400.70929938 -13.20365231 400.09030917 -27.57613182 392.50922108 C-28.23226463 392.1714867 -28.88839745 391.83375233 -29.56441307 391.48578358 C-51.79992469 379.61537505 -67.09015129 359.80221629 -74.51912498 335.9149828 C-77.57210608 324.9449285 -77.01039694 313.64338457 -76.96870995 302.35297108 C-76.97413881 299.87266092 -76.98126574 297.392354 -76.98995018 294.91205311 C-77.00621685 288.90714916 -77.00394601 282.90252339 -76.99229962 276.89763069 C-76.98322098 272.01204067 -76.9820603 267.12650659 -76.98639488 262.24091053 C-76.98700781 261.54233197 -76.98762075 260.8437534 -76.98825225 260.12400579 C-76.98953131 258.70431676 -76.99082817 257.28462774 -76.99214262 255.86493874 C-77.00351556 242.59053502 -76.99048655 229.31624227 -76.96894115 216.04185677 C-76.95107314 204.68196436 -76.95417818 193.32223553 -76.9726162 181.96234608 C-76.99408126 168.73149142 -77.00241723 155.50073372 -76.99016714 142.26986408 C-76.98889311 140.85575328 -76.98763562 139.44164246 -76.98639488 138.02753162 C-76.98577778 137.33198311 -76.98516068 136.6364346 -76.98452488 135.91980886 C-76.98108883 131.04700113 -76.98686238 126.17425552 -76.9963131 121.30145741 C-77.0087828 114.72834836 -76.99975089 108.15549821 -76.97673607 101.58240223 C-76.97147671 99.17953467 -76.97291479 96.776641 -76.98178673 94.37378407 C-77.03574432 78.26697478 -75.99989081 64.21355884 -68.82613182 49.50922108 C-68.48839745 48.80611805 -68.15066307 48.10301502 -67.80269432 47.37860584 C-64.22817776 40.23523884 -59.67331262 34.14687691 -54.45113182 28.13422108 C-53.48240135 27.0146703 -53.48240135 27.0146703 -52.49410057 25.87250233 C-40.73741593 13.27428657 -24.85983967 5.57824612 -8.45113182 1.13422108 C-7.8249286 0.95627894 -7.19872538 0.7783368 -6.55354631 0.59500247 C-4.30550484 0.10230434 -2.30038223 0.00535339 0 0 Z M1.04886818 95.19672108 C-1.24587284 99.9501132 -1.21220195 104.9931147 -0.45113182 110.13422108 C1.87471504 115.05428175 4.87030426 117.44653542 9.54886818 120.13422108 C13.4358843 121.42989312 17.11863972 121.2788523 21.16988564 121.27466297 C22.06110235 121.27763409 22.95231907 121.28060522 23.87054235 121.28366637 C26.86903993 121.29236611 29.86749764 121.29386271 32.86600685 121.29535389 C35.01107812 121.29998121 37.15614856 121.30500575 39.30121803 121.31039906 C45.13816793 121.32353452 50.97510632 121.32997041 56.8120687 121.33440971 C60.45799779 121.33733898 64.10392372 121.34144353 67.74985123 121.34591389 C79.15472976 121.35959268 90.55960109 121.36925711 101.96448725 121.37311578 C115.13379051 121.3775957 128.30298993 121.39513902 141.47226161 121.42411637 C151.64816125 121.44573046 161.82403169 121.45581994 171.99995404 121.4571569 C178.07894873 121.45820524 184.15784587 121.46411929 190.23681641 121.48197651 C195.95691974 121.49845207 201.67685214 121.5006151 207.39697075 121.4918375 C209.49477979 121.49106682 211.592598 121.49541393 213.69038391 121.50529575 C216.55810337 121.51801047 219.42521702 121.51214082 222.29293251 121.50171375 C223.1197011 121.50977016 223.94646968 121.51782656 224.79829186 121.5261271 C230.61475493 121.47679319 236.60714852 120.79659258 241.11403054 116.71768785 C245.12442384 112.0903102 245.85535334 108.30685565 245.75980568 102.41156483 C245.30846956 97.53880639 243.12981748 94.44837084 239.54886818 91.32172108 C234.7099685 87.79335673 230.58079217 87.98579865 224.81395912 87.98705006 C223.45875806 87.98153502 223.45875806 87.98153502 222.07617921 87.97590858 C219.03622674 87.96485904 215.99630844 87.96102574 212.95633888 87.95721912 C210.78171111 87.95095543 208.6070844 87.94430871 206.43245888 87.9373064 C200.51493645 87.91988791 194.5974221 87.90934228 188.67988038 87.90110087 C184.98369853 87.89595243 181.28751919 87.88987662 177.59133911 87.88358974 C166.02948536 87.86453514 154.467638 87.85030467 142.90577155 87.84197778 C129.5547518 87.83220391 116.20391548 87.80588148 102.8529523 87.76547688 C92.53692715 87.73532727 82.22094954 87.72050998 71.90488118 87.71719676 C65.74201529 87.71484495 59.57932639 87.70586719 53.41650772 87.68073559 C47.6175754 87.6574703 41.81893682 87.65321561 36.01996994 87.66349697 C33.89312959 87.66399281 31.76627486 87.65765815 29.63947868 87.64394093 C26.73219916 87.62624104 23.82597592 87.63331914 20.91869545 87.64647388 C20.08025402 87.63550464 19.24181259 87.62453539 18.37796384 87.61323375 C11.19248853 87.69154008 5.66943313 89.53652901 1.04886818 95.19672108 Z M2.61136818 161.19672108 C-1.23146015 166.66984021 -1.1923449 171.54753217 -0.45113182 178.13422108 C1.19729962 182.21266783 3.36590595 184.4039603 7.08215523 186.69805813 C11.45693226 188.51040682 15.01313509 188.55220997 19.69596291 188.515172 C20.60748824 188.51985198 21.51901357 188.52453195 22.45816088 188.52935374 C25.50742559 188.54130376 28.55624089 188.53184635 31.6055088 188.52240467 C33.79367777 188.52647036 35.98184468 188.53181222 38.17000771 188.53833485 C44.10999965 188.55201448 50.04983533 188.54670704 55.98983002 188.53719759 C62.20502965 188.5296044 68.42021587 188.53664566 74.63541603 188.54135609 C85.74152638 188.54716429 96.84757523 188.53783899 107.95367342 188.52257808 C118.01913164 188.5091752 128.08448605 188.5115034 138.1499424 188.52533436 C149.84464862 188.5413966 161.53929427 188.54736086 173.23401022 188.53849757 C179.42242837 188.53381952 185.61077505 188.53319989 191.79918861 188.54310703 C197.61701834 188.55177025 203.43465195 188.54576638 209.25246048 188.52842426 C211.388193 188.524456 213.523942 188.52559925 215.65966797 188.53221226 C218.57392628 188.54040423 221.48755528 188.53013424 224.40177345 188.515172 C225.24788516 188.52186417 226.09399686 188.52855633 226.96574831 188.53545129 C232.58113689 188.4794919 236.92484089 187.58372874 241.19339943 183.59906483 C245.56363322 177.88414371 246.30962668 174.28106501 245.54886818 167.13422108 C243.7955177 161.81405477 240.44025538 158.72965102 235.54886818 156.13422108 C231.00911359 154.8780525 226.43655754 154.98886683 221.76326942 154.99377918 C220.43613173 154.9893225 220.43613173 154.9893225 219.08218318 154.98477578 C216.11753669 154.97610426 213.15293065 154.97458185 210.18827248 154.97308826 C208.06261039 154.96845904 205.93694913 154.96343424 203.81128883 154.9580431 C198.03643886 154.94492822 192.26160051 154.93847606 186.48673797 154.93403244 C182.87865527 154.9311006 179.27057575 154.92699561 175.66249466 154.92252827 C164.37295315 154.90885653 153.08341889 154.89918795 141.79386967 154.89532638 C128.76268727 154.89084451 115.73160971 154.87328921 102.70045918 154.84432578 C92.62642918 154.82271215 82.55242868 154.81262228 72.47837573 154.81128526 C66.46200868 154.81023712 60.44574022 154.80432723 54.42939758 154.78646564 C48.7700046 154.76999029 43.11078438 154.76782695 37.45137596 154.77660465 C35.37614097 154.77737527 33.30089672 154.77302902 31.22568512 154.7631464 C28.38872396 154.75043011 25.55237503 154.75630209 22.71541786 154.7667284 C21.89779541 154.758672 21.08017296 154.75061559 20.23777407 154.74231505 C13.54084973 154.79972275 7.16864751 155.84696706 2.61136818 161.19672108 Z M1.04886818 226.19672108 C-1.24587284 230.9501132 -1.21220195 235.9931147 -0.45113182 241.13422108 C1.87471504 246.05428175 4.87030426 248.44653542 9.54886818 251.13422108 C13.4358843 252.42989312 17.11863972 252.2788523 21.16988564 252.27466297 C22.06110235 252.27763409 22.95231907 252.28060522 23.87054235 252.28366637 C26.86903993 252.29236611 29.86749764 252.29386271 32.86600685 252.29535389 C35.01107812 252.29998121 37.15614856 252.30500575 39.30121803 252.31039906 C45.13816793 252.32353452 50.97510632 252.32997041 56.8120687 252.33440971 C60.45799779 252.33733898 64.10392372 252.34144353 67.74985123 252.34591389 C79.15472976 252.35959268 90.55960109 252.36925711 101.96448725 252.37311578 C115.13379051 252.3775957 128.30298993 252.39513902 141.47226161 252.42411637 C151.64816125 252.44573046 161.82403169 252.45581994 171.99995404 252.4571569 C178.07894873 252.45820524 184.15784587 252.46411929 190.23681641 252.48197651 C195.95691974 252.49845207 201.67685214 252.5006151 207.39697075 252.4918375 C209.49477979 252.49106682 211.592598 252.49541393 213.69038391 252.50529575 C216.55810337 252.51801047 219.42521702 252.51214082 222.29293251 252.50171375 C223.1197011 252.50977016 223.94646968 252.51782656 224.79829186 252.5261271 C230.61475493 252.47679319 236.60714852 251.79659258 241.11403054 247.71768785 C245.12442384 243.0903102 245.85535334 239.30685565 245.75980568 233.41156483 C245.30846956 228.53880639 243.12981748 225.44837084 239.54886818 222.32172108 C234.7099685 218.79335673 230.58079217 218.98579865 224.81395912 218.98705006 C223.45875806 218.98153502 223.45875806 218.98153502 222.07617921 218.97590858 C219.03622674 218.96485904 215.99630844 218.96102574 212.95633888 218.95721912 C210.78171111 218.95095543 208.6070844 218.94430871 206.43245888 218.9373064 C200.51493645 218.91988791 194.5974221 218.90934228 188.67988038 218.90110087 C184.98369853 218.89595243 181.28751919 218.88987662 177.59133911 218.88358974 C166.02948536 218.86453514 154.467638 218.85030467 142.90577155 218.84197778 C129.5547518 218.83220391 116.20391548 218.80588148 102.8529523 218.76547688 C92.53692715 218.73532727 82.22094954 218.72050998 71.90488118 218.71719676 C65.74201529 218.71484495 59.57932639 218.70586719 53.41650772 218.68073559 C47.6175754 218.6574703 41.81893682 218.65321561 36.01996994 218.66349697 C33.89312959 218.66399281 31.76627486 218.65765815 29.63947868 218.64394093 C26.73219916 218.62624104 23.82597592 218.63331914 20.91869545 218.64647388 C20.08025402 218.63550464 19.24181259 218.62453539 18.37796384 218.61323375 C11.19248853 218.69154008 5.66943313 220.53652901 1.04886818 226.19672108 Z M1.11136818 290.63422108 C-1.19856369 295.80846847 -1.201837 300.557554 -0.45113182 306.13422108 C1.83548628 311.05924467 4.82361747 313.5305115 9.54886818 316.13422108 C14.07651436 317.39503479 18.64086453 317.27672705 23.30323219 317.26793385 C24.18461267 317.2701994 25.06599314 317.27246496 25.97408211 317.27479917 C28.92724678 317.28112895 31.88036544 317.28031046 34.83353615 317.27948475 C36.95096839 317.28247686 39.06840009 317.28587951 41.18583107 317.28966236 C46.93789058 317.29850091 52.68993522 317.30084041 58.44200087 317.30147815 C63.24324772 317.30242755 68.0444911 317.30610618 72.84573662 317.30965024 C84.17272627 317.31779414 95.49970797 317.32023452 106.82670021 317.31952381 C118.5129145 317.31892292 130.19908265 317.32947719 141.88528526 317.34526747 C151.91768641 317.35834034 161.95007247 317.36370782 171.98248208 317.3630684 C177.97475947 317.36281335 183.96699585 317.36566836 189.95926476 317.37624645 C195.59482549 317.3859232 201.23030597 317.38600947 206.86586952 317.37872982 C208.93345825 317.37768348 211.00105196 317.38004979 213.06863213 317.38609028 C215.89269486 317.39380607 218.71648014 317.38916805 221.54053688 317.38145924 C222.35718122 317.3866028 223.17382557 317.39174636 224.01521671 317.39704579 C231.15409499 317.35403302 237.3116985 316.37139075 242.54886818 311.13422108 C246.02218896 306.10389442 246.4178932 301.0629029 245.54886818 295.13422108 C243.05552315 290.14753101 239.55535869 286.63746633 234.54886818 284.13422108 C231.64207803 284.02947747 228.75888436 283.9864275 225.85155678 283.98705006 C224.48432835 283.98153502 224.48432835 283.98153502 223.08947915 283.97590858 C220.01644763 283.96484149 216.94344988 283.96102277 213.87040138 283.95721912 C211.67459441 283.95095673 209.47878851 283.94431013 207.28298378 283.9373064 C201.30348775 283.91987518 195.32399973 283.90933874 189.34448457 283.90110087 C185.61062623 283.89595495 181.87677039 283.88987902 178.14291382 283.88358974 C167.13646886 283.86562519 156.1300285 283.85124737 145.12357147 283.84341334 C143.10884289 283.84197484 141.09411432 283.84052347 139.07938576 283.83905506 C138.07898996 283.83832945 138.07898996 283.83832945 137.05838414 283.83758918 C126.25762147 283.82929117 115.45696963 283.80395905 104.65625534 283.77147438 C93.56734805 283.73839493 82.47848689 283.7207241 71.38952893 283.71719676 C65.16352362 283.71484371 58.93769341 283.70585001 52.71173477 283.68073559 C46.85372381 283.65748795 40.99600363 283.65320847 35.13795853 283.66349697 C32.98812329 283.66399325 30.8382739 283.65764572 28.68848228 283.64394093 C25.75233793 283.62627101 22.8172426 283.63330441 19.88109779 283.64647388 C19.0312795 283.63550464 18.18146122 283.62453539 17.30589086 283.61323375 C10.38408194 283.6881347 6.0422461 285.57691038 1.11136818 290.63422108 Z " fill="#1C75BC" transform="translate(76.45113182067871,-0.13422107696533203)"/>
</svg>
