<?xml version="1.0" encoding="UTF-8"?>
<svg version="1.1" xmlns="http://www.w3.org/2000/svg" width="512" height="512">
<path d="M0 0 C0.70189453 0.33725098 1.40378906 0.67450195 2.12695312 1.02197266 C23.41085316 11.41242154 41.88786425 25.75119841 59 42 C59.53415527 42.50547363 60.06831055 43.01094727 60.61865234 43.53173828 C68.91670386 51.44016361 76.1761515 59.79728921 83 69 C83.4237793 69.56299805 83.84755859 70.12599609 84.28417969 70.70605469 C120.59782332 119.07772603 136.71985806 181.57855856 128.75 241.5625 C128.22531668 245.05341352 127.6250376 248.52587316 127 252 C126.8767334 252.763125 126.7534668 253.52625 126.62646484 254.3125 C120.50516319 292.07281862 103.08386645 328.50488508 79 358 C78.1853125 359.01835937 77.370625 360.03671875 76.53125 361.0859375 C64.9470585 375.34272322 51.82181337 388.15581613 37 399 C35.87216154 399.84604192 34.74455819 400.69239736 33.6171875 401.5390625 C3.08506681 424.18699466 -32.57448312 438.05976728 -70 444 C-70.74942871 444.12842285 -71.49885742 444.2568457 -72.27099609 444.38916016 C-96.0466866 448.37126808 -122.3777351 447.2531058 -146 443 C-146.89477051 442.83902832 -147.78954102 442.67805664 -148.71142578 442.51220703 C-193.91184566 433.99879341 -235.35401482 412.74054643 -268.265625 380.6875 C-269.90547243 379.09197277 -271.56040286 377.51375075 -273.21875 375.9375 C-280.09008891 369.32733317 -286.07260707 362.24020003 -291.78759766 354.61376953 C-292.85830727 353.18860026 -293.94916093 351.77861319 -295.04296875 350.37109375 C-325.02199477 310.87295432 -340.56098631 260.79790951 -340.3125 211.4375 C-340.31034485 210.65796967 -340.3081897 209.87843933 -340.30596924 209.07528687 C-340.10522829 163.50883115 -327.06526406 117.68471913 -301 80 C-300.35297119 79.06220703 -300.35297119 79.06220703 -299.69287109 78.10546875 C-285.55740428 57.83379527 -268.66943071 38.87206215 -248.6796875 24.23095703 C-247.0029241 23.00214293 -245.34512847 21.75055492 -243.6875 20.49609375 C-213.58364685 -1.96776636 -177.92309939 -15.8953247 -141 -22 C-140.27683594 -22.12842285 -139.55367187 -22.2568457 -138.80859375 -22.38916016 C-92.03071043 -30.44460008 -42.27173851 -20.32588328 0 0 Z M-162 73 C-162.76183594 73.66644531 -163.52367187 74.33289063 -164.30859375 75.01953125 C-178.58171551 88.35265539 -189.14835561 109.4121791 -190 129 C-190.0515625 130.0003125 -190.103125 131.000625 -190.15625 132.03125 C-190.80811588 156.15028771 -181.97523777 177.63221185 -165.8046875 195.4140625 C-161.479252 199.92035245 -157.08660404 203.55660066 -151.75 206.80859375 C-150 208 -150 208 -149 210 C-149.86367187 210.26683594 -150.72734375 210.53367188 -151.6171875 210.80859375 C-178.41474194 220.24653152 -198.70942807 243.18214882 -211 268 C-219.12706828 285.02001537 -222.13039252 302.53836242 -222.203125 321.26171875 C-222.20882507 322.41114456 -222.21452515 323.56057037 -222.22039795 324.74482727 C-222.22979693 327.16101168 -222.23636148 329.57720862 -222.24023438 331.9934082 C-222.24999758 335.68658487 -222.28109278 339.37921785 -222.3125 343.07226562 C-222.31902567 345.42708005 -222.32427785 347.78189842 -222.328125 350.13671875 C-222.3404718 351.23682785 -222.3528186 352.33693695 -222.36553955 353.47038269 C-222.42575112 361.22792875 -222.42575112 361.22792875 -219 368 C-213.55595835 370.89602273 -209.18175227 371.43151064 -203.08105469 371.38095093 C-202.20613247 371.3856309 -201.33121025 371.39031087 -200.42977524 371.39513266 C-197.51031904 371.40705865 -194.59133434 371.39763476 -191.671875 371.38818359 C-189.57384976 371.39225035 -187.47582666 371.39759282 -185.37780762 371.40411377 C-179.68779745 371.41778067 -173.99795062 371.41249122 -168.30793762 371.40297651 C-162.35079511 371.39537673 -156.3936665 371.40242642 -150.43652344 371.40713501 C-140.43291719 371.41259162 -130.42937741 371.40540339 -120.42578125 371.39111328 C-108.86332243 371.37478699 -97.30102232 371.38007557 -85.73856735 371.3965925 C-75.80802426 371.41021002 -65.87752893 371.41212571 -55.94697952 371.40427649 C-50.01732024 371.39960146 -44.08773553 371.39897052 -38.15808105 371.40888596 C-32.58318153 371.41755714 -27.00848647 371.41153072 -21.43360901 371.39420319 C-19.38859903 371.39023919 -17.34357183 371.39137089 -15.29856873 371.39799118 C-12.50512926 371.40620006 -9.71234325 371.39589285 -6.91894531 371.38095093 C-6.11144711 371.38764309 -5.3039489 371.39433526 -4.47198105 371.40123022 C0.73605644 371.3472698 4.38088939 370.45948282 9 368 C13.02156583 362.81056817 12.43409741 356.7640999 12.3984375 350.48828125 C12.40130768 349.36544235 12.40417786 348.24260345 12.40713501 347.08573914 C12.40917441 344.70616147 12.40365328 342.32656699 12.39111328 339.94702148 C12.37525438 336.36987921 12.39086467 332.79390103 12.41015625 329.21679688 C12.44660531 291.49628873 2.63994221 259.71092091 -24.51123047 232.42285156 C-32.56784693 224.7229564 -49.73235618 210 -61 210 C-58.42015396 207.32739546 -55.799364 205.01592426 -52.8125 202.8125 C-34.56585786 188.65716715 -24.19909351 169.13142106 -20.40625 146.44921875 C-17.78412432 124.18636323 -24.04075124 101.60885901 -37.8125 83.875 C-39.18924451 82.2337961 -40.58510469 80.60842997 -42 79 C-42.66644531 78.23816406 -43.33289063 77.47632812 -44.01953125 76.69140625 C-58.46993055 61.2222404 -79.65738194 51.96347878 -100.65625 50.796875 C-123.65721859 50.51637538 -144.64808952 57.73596168 -162 73 Z " fill="#2096F3" transform="translate(361,45)"/>
<path d="M0 0 C17.23303884 15.63775753 27.52661337 35.54005128 31.36230469 58.55419922 C31.36230469 73.73419922 31.36230469 88.91419922 31.36230469 104.55419922 C-31.99769531 104.55419922 -95.35769531 104.55419922 -160.63769531 104.55419922 C-160.63769531 32.14885264 -160.63769531 32.14885264 -132.07519531 2.55419922 C-117.98325495 -11.49286235 -100.16576376 -19.99804858 -80.63769531 -23.44580078 C-79.37957031 -23.67267578 -78.12144531 -23.89955078 -76.82519531 -24.13330078 C-48.67711748 -26.90099881 -21.3218543 -18.82349749 0 0 Z " fill="#2096F3" transform="translate(320.6376953125,290.44580078125)"/>
<path d="M0 0 C12.21484498 10.59579337 20.74333391 25.41681474 22.49121094 41.62963867 C22.62308521 44.46865381 22.6556145 47.28315477 22.625 50.125 C22.61670166 51.12829346 22.60840332 52.13158691 22.59985352 53.1652832 C22.19429084 71.07787512 14.98850591 85.32782867 2.1875 97.8125 C-10.84751579 109.99882528 -27.32556723 115.6347381 -45.109375 115.15625 C-64.64845737 113.34249552 -79.57434246 105.20028117 -92.68359375 90.75 C-102.00833689 79.12434622 -106.40770682 65.25434931 -106.25 50.5 C-106.24242676 49.49743164 -106.23485352 48.49486328 -106.22705078 47.46191406 C-105.8409915 29.98498217 -98.91212966 15.39686058 -86.8125 2.8125 C-62.08392576 -19.46075481 -26.22093203 -20.150256 0 0 Z " fill="#2096F3" transform="translate(297.8125,131.1875)"/>
</svg>
