<?xml version="1.0" encoding="UTF-8"?>
<svg version="1.1" xmlns="http://www.w3.org/2000/svg" width="508" height="143">
<path d="M0 0 C167.64 0 335.28 0 508 0 C508 47.19 508 94.38 508 143 C340.36 143 172.72 143 0 143 C0 95.81 0 48.62 0 0 Z " fill="#B7D8EA" transform="translate(0,0)"/>
<path d="M0 0 C1.06661865 0.01123901 1.06661865 0.01123901 2.15478516 0.02270508 C14.82225037 0.2830353 24.71155735 5.10879858 33.86328125 13.80078125 C41.71757009 22.30620285 45.83394048 33.04043456 45.41015625 44.6484375 C43.96139666 57.86588797 38.70735731 68.09510844 29.125 77.25 C23.99332504 81.32694335 18.39523487 83.50564894 12.125 85.25 C11.53332031 85.43433594 10.94164062 85.61867188 10.33203125 85.80859375 C-0.46759059 87.96851812 -11.67377884 86.68053855 -21.078125 80.89453125 C-23.1177075 79.44269104 -24.99275331 77.89947418 -26.875 76.25 C-27.76638672 75.53263672 -27.76638672 75.53263672 -28.67578125 74.80078125 C-36.95828004 67.50997854 -41.37332442 56.5777532 -42.11328125 45.76953125 C-42.37186302 32.85405243 -39.73750489 23.77544817 -30.875 14.25 C-25.77215154 9.09208483 -20.6708138 4.90523092 -13.875 2.25 C-12.96878906 1.89164063 -12.06257813 1.53328125 -11.12890625 1.1640625 C-7.3691745 0.10790736 -3.87092241 -0.05354669 0 0 Z " fill="#164267" transform="translate(89.875,20.75)"/>
<path d="M0 0 C1.39662453 1.01248919 2.77331647 2.05325093 4.125 3.125 C4.72699219 3.60195313 5.32898438 4.07890625 5.94921875 4.5703125 C15.07313003 12.73057473 20.5086111 24.49555537 21.3671875 36.515625 C21.926589 52.50792682 17.21193892 65.4713445 6.5625 77.375 C-2.85093294 86.24219892 -16.6071615 91.04335342 -29.375 91.5 C-43.35346317 91.01798403 -56.27337461 85.33819388 -65.875 75.125 C-76.32361638 62.97493878 -79.11543728 49.79836266 -78.07128906 34.24121094 C-76.79033505 20.43112462 -69.31736979 9.88075108 -58.875 1.125 C-40.79722194 -11.47819321 -18.60072182 -11.57101759 0 0 Z M-64.15234375 15.859375 C-66.59820008 19.0761475 -68.40674669 22.36714376 -69.875 26.125 C-70.23335937 27.04152344 -70.59171875 27.95804688 -70.9609375 28.90234375 C-73.21472731 36.84839758 -72.97405246 47.37736885 -69.875 55.125 C-69.50632812 56.04667969 -69.13765625 56.96835938 -68.7578125 57.91796875 C-63.15940245 70.39578099 -54.52885207 78.09685643 -41.875 83.125 C-32.39088638 86.37217043 -18.8996735 84.91751758 -9.984375 80.78515625 C2.3414737 74.20414407 9.67356889 65.02425614 13.8671875 51.78125 C16.76852684 40.49384765 15.21602178 29.56133833 9.58203125 19.3203125 C2.8888731 9.24228489 -6.7070459 1.17197216 -18.76171875 -1.51953125 C-38.20499368 -3.73952876 -51.28268801 0.81492654 -64.15234375 15.859375 Z " fill="#B4D4E7" transform="translate(119.875,22.875)"/>
<path d="M0 0 C0.66 0.33 1.32 0.66 2 1 C2 1.33 2 1.66 2 2 C2.66 1.34 3.32 0.68 4 0 C6.125 0.375 6.125 0.375 8 1 C7.01 1.66 6.02 2.32 5 3 C5 3.66 5 4.32 5 5 C5.556875 4.319375 6.11375 3.63875 6.6875 2.9375 C9 1 9 1 11.375 0.9375 C15.03789461 2.4201002 17.29705385 4.10847621 20 7 C20.375 10.8125 20.375 10.8125 20 14 C19.01 13.67 18.02 13.34 17 13 C17 13.99 17 14.98 17 16 C17.99 16 18.98 16 20 16 C20 16.66 20 17.32 20 18 C18.68 17.67 17.36 17.34 16 17 C16 17.99 16 18.98 16 20 C16.99 20.33 17.98 20.66 19 21 C17.68 21.33 16.36 21.66 15 22 C15.33 22.66 15.66 23.32 16 24 C16.99 24.33 17.98 24.66 19 25 C19 25.66 19 26.32 19 27 C17.68 27 16.36 27 15 27 C15 27.66 15 28.32 15 29 C15.99 29 16.98 29 18 29 C18 29.66 18 30.32 18 31 C16.68 31 15.36 31 14 31 C14 31.66 14 32.32 14 33 C15.32 33.33 16.64 33.66 18 34 C18 34.66 18 35.32 18 36 C16.35 35.67 14.7 35.34 13 35 C13.33 35.66 13.66 36.32 14 37 C15.485 37.495 15.485 37.495 17 38 C16.5089914 43.52384676 16.5089914 43.52384676 14.0625 45.8125 C12.72963258 46.57990851 11.37563117 47.31218442 10 48 C10.66 48 11.32 48 12 48 C11.69201674 49.48011371 11.378482 50.95907325 11.0625 52.4375 C10.88847656 53.26121094 10.71445313 54.08492187 10.53515625 54.93359375 C10 57 10 57 9 58 C7.33382885 58.04063832 5.66611905 58.042721 4 58 C3.505 55.525 3.505 55.525 3 53 C1.35 53 -0.3 53 -2 53 C-2 53.99 -2 54.98 -2 56 C-2.66 56 -3.32 56 -4 56 C-4 53 -4 50 -4 47 C-4.495 46.401875 -4.99 45.80375 -5.5 45.1875 C-7.29354721 42.57191032 -7.25870778 41.10449338 -7 38 C-7.66 38 -8.32 38 -9 38 C-8.34 40.64 -7.68 43.28 -7 46 C-7.99 45.67 -8.98 45.34 -10 45 C-10.33 42.69 -10.66 40.38 -11 38 C-11.66 38 -12.32 38 -13 38 C-13.33 39.32 -13.66 40.64 -14 42 C-14 39.36 -14 36.72 -14 34 C-12.02 34 -10.04 34 -8 34 C-8 33.34 -8 32.68 -8 32 C-9.98 32 -11.96 32 -14 32 C-14 31.34 -14 30.68 -14 30 C-11.69 30 -9.38 30 -7 30 C-7 29.01 -7 28.02 -7 27 C-8.98 27 -10.96 27 -13 27 C-13 26.34 -13 25.68 -13 25 C-11.35 25 -9.7 25 -8 25 C-8 24.34 -8 23.68 -8 23 C-9.65 23 -11.3 23 -13 23 C-13 22.34 -13 21.68 -13 21 C-12.195625 20.87625 -11.39125 20.7525 -10.5625 20.625 C-9.716875 20.41875 -8.87125 20.2125 -8 20 C-7.67 19.34 -7.34 18.68 -7 18 C-8.65 18 -10.3 18 -12 18 C-12 17.34 -12 16.68 -12 16 C-10.02 16 -8.04 16 -6 16 C-6 15.34 -6 14.68 -6 14 C-7.98 14 -9.96 14 -12 14 C-12 13.34 -12 12.68 -12 12 C-9.69 12 -7.38 12 -5 12 C-5 11.34 -5 10.68 -5 10 C-6.98 10 -8.96 10 -11 10 C-10.67 8.02 -10.34 6.04 -10 4 C-9.01 4 -8.02 4 -7 4 C-6.34 3.01 -5.68 2.02 -5 1 C-4.34 1.33 -3.68 1.66 -3 2 C-3.66 3.32 -4.32 4.64 -5 6 C-4.34 6 -3.68 6 -3 6 C-2.690625 5.195625 -2.38125 4.39125 -2.0625 3.5625 C-1 1 -1 1 0 0 Z " fill="#EDF1F2" transform="translate(89,32)"/>
<path d="M0 0 C106.59 0 213.18 0 323 0 C323 1.32 323 2.64 323 4 C216.41 4 109.82 4 0 4 C0 2.68 0 1.36 0 0 Z " fill="#F8BE0F" transform="translate(152,73)"/>
<path d="M0 0 C12.51932476 8.05912307 21.52228112 19.75489282 25.4296875 34.171875 C27.37411434 44.17428696 27.138836 54.61390375 23.1796875 64.046875 C22.57640625 65.49513672 22.57640625 65.49513672 21.9609375 66.97265625 C15.09533324 81.98163001 4.3049604 90.60726202 -10.55078125 96.84765625 C-22.80565337 101.3425735 -38.0040298 100.3141862 -49.8203125 95.046875 C-65.61605981 86.99958211 -73.52449197 74.95973609 -80.0234375 59.11328125 C-81.06602964 55.10134583 -81.12108087 51.36210182 -81.0703125 47.234375 C-81.06209473 46.4304834 -81.05387695 45.6265918 -81.04541016 44.79833984 C-80.77045301 30.24335022 -75.25401423 17.44653528 -64.8203125 7.046875 C-45.80512559 -8.41361628 -21.78385465 -12.40398312 0 0 Z M-68.8203125 17.046875 C-77.03502896 29.10533042 -79.0254257 43.80689882 -76.44970703 58.10400391 C-73.21588634 71.19744438 -65.01474299 81.7605593 -53.8203125 89.046875 C-41.07021202 96.10625267 -28.13698098 98.0918701 -14 94.14453125 C-0.6101472 89.52223563 9.88568699 82.47918651 16.89453125 69.828125 C22.72328709 57.21391784 24.54844692 43.13417094 20.28125 29.734375 C14.89535009 16.59430712 6.79100074 7.46648927 -5.8203125 1.046875 C-6.59375 0.63179687 -7.3671875 0.21671875 -8.1640625 -0.2109375 C-14.4648255 -3.06223215 -20.57245103 -3.33457264 -27.3828125 -3.390625 C-28.69439331 -3.40585205 -28.69439331 -3.40585205 -30.0324707 -3.42138672 C-46.10161904 -3.20747287 -58.68358097 4.88634768 -68.8203125 17.046875 Z " fill="#1E496E" transform="translate(118.8203125,17.953125)"/>
<path d="M0 0 C18.84135754 -0.58879242 18.84135754 -0.58879242 25 4 C28.06067559 7.36674315 28.9083466 9.36860992 29.5625 13.875 C29.29760176 18.63403387 27.26861478 22.5717552 24 26 C18.89381926 29.38361374 14.51620739 29.36928767 8.625 29.1875 C4.355625 29.0946875 4.355625 29.0946875 0 29 C0 19.43 0 9.86 0 0 Z " fill="#F9FCFC" transform="translate(217,37)"/>
<path d="M0 0 C4.03654111 1.9828623 6.6500056 4.16579861 9 8 C10.36711412 12.10134235 10.75222526 15.72083177 10 20 C7.34393985 24.73277832 4.16707187 27.35697863 -1 29 C-6.43567665 29.76163611 -11.40527538 29.92316143 -16.0625 26.75 C-19.32796073 24.16318025 -20.79776192 21.55676292 -21.3359375 17.4140625 C-21.41960054 11.44052131 -21.24871166 7.59320179 -17 3 C-11.56907188 -0.891232 -6.47333573 -0.79820264 0 0 Z " fill="#FCFDFC" transform="translate(283,37)"/>
<path d="M0 0 C4.07309688 3.00633341 7.05559947 6.09049735 8.07421875 11.18359375 C8.33653979 16.54760673 7.19011206 19.7782026 3.625 23.9375 C-0.98311169 27.98705269 -5.53720933 28.44955295 -11.50390625 28.42578125 C-16.33621858 27.60395943 -19.37297647 24.68601601 -22.375 20.9375 C-23.84343278 16.53220166 -24.22756699 12.5251224 -23.375 7.9375 C-17.6823314 -1.21249613 -10.23983147 -3.22365065 0 0 Z " fill="#F7BF21" transform="translate(405.375,38.0625)"/>
<path d="M0 0 C2.84625 -0.0825 5.6925 -0.165 8.625 -0.25 C9.51010254 -0.28641602 10.39520508 -0.32283203 11.30712891 -0.36035156 C17.99481472 -0.45367511 21.393793 1.66813058 26.375 6.125 C28.78613044 10.39084617 28.75315464 14.21208837 28 19 C25.63475039 23.9124415 22.76634838 26.43267144 18 29 C14.84966249 29.46359718 11.80003658 29.3806314 8.625 29.25 C4.355625 29.12625 4.355625 29.12625 0 29 C0 19.43 0 9.86 0 0 Z " fill="#F6BF20" transform="translate(447,37)"/>
<path d="M0 0 C2.701875 -0.061875 5.40375 -0.12375 8.1875 -0.1875 C9.02949951 -0.21481201 9.87149902 -0.24212402 10.73901367 -0.27026367 C15.34891293 -0.32122298 18.22564112 0.06915314 22 3 C24.33163242 5.33163242 24.9385006 6.59586111 25.4375 9.875 C25 13 25 13 22.875 16.0625 C22.25625 17.031875 21.6375 18.00125 21 19 C21.51953703 21.63276087 21.51953703 21.63276087 23 24 C23.66666667 25.66666667 24.33333333 27.33333333 25 29 C22.36 29 19.72 29 17 29 C16.443125 27.865625 15.88625 26.73125 15.3125 25.5625 C13.5777124 22.44531169 13.5777124 22.44531169 10.25 21.0625 C9.5075 21.041875 8.765 21.02125 8 21 C8 23.64 8 26.28 8 29 C5.36 29 2.72 29 0 29 C0 19.43 0 9.86 0 0 Z " fill="#F5BF24" transform="translate(417,37)"/>
<path d="M0 0 C2.51625 -0.061875 5.0325 -0.12375 7.625 -0.1875 C8.79603271 -0.22846802 8.79603271 -0.22846802 9.99072266 -0.27026367 C14.71841279 -0.32607418 17.91835974 0.37083533 22 3 C24.45193779 6.67790669 24.71511798 9.72592275 24 14 C22 17 22 17 20 19 C20.28875 19.721875 20.5775 20.44375 20.875 21.1875 C22.4375 25.09375 22.4375 25.09375 24 29 C20.75 29.375 20.75 29.375 17 29 C13 24.28205128 13 24.28205128 13 21 C11.02 21 9.04 21 7 21 C7 23.64 7 26.28 7 29 C4.69 29 2.38 29 0 29 C0 19.43 0 9.86 0 0 Z " fill="#F7BE20" transform="translate(298,37)"/>
<path d="M0 0 C2.31 0 4.62 0 7 0 C20 25.65384615 20 25.65384615 20 29 C17.36 29 14.72 29 12 29 C11.34 27.35 10.68 25.7 10 24 C5.71 23.67 1.42 23.34 -3 23 C-3.66 24.98 -4.32 26.96 -5 29 C-7.31 29 -9.62 29 -12 29 C-11.33052093 23.95861969 -9.2118989 19.64395367 -7.125 15.0625 C-6.77308594 14.27681641 -6.42117187 13.49113281 -6.05859375 12.68164062 C-4.13282721 8.40414803 -2.13318436 4.17916307 0 0 Z " fill="#FAFCFC" transform="translate(164,37)"/>
<path d="M0 0 C7.59 0 15.18 0 23 0 C23 1.98 23 3.96 23 6 C18.05 6 13.1 6 8 6 C8 7.65 8 9.3 8 11 C12.29 11 16.58 11 21 11 C21 12.98 21 14.96 21 17 C16.38 17 11.76 17 7 17 C7 18.98 7 20.96 7 23 C12.28 23 17.56 23 23 23 C23 24.98 23 26.96 23 29 C15.41 29 7.82 29 0 29 C0 19.43 0 9.86 0 0 Z " fill="#F4C02B" transform="translate(327,37)"/>
<path d="M0 0 C2.31 0 4.62 0 7 0 C7.01981934 0.55985596 7.03963867 1.11971191 7.06005859 1.6965332 C7.15537783 4.23565854 7.26502753 6.77396888 7.375 9.3125 C7.4059375 10.19357422 7.436875 11.07464844 7.46875 11.98242188 C7.50742188 12.82998047 7.54609375 13.67753906 7.5859375 14.55078125 C7.6173584 15.33106689 7.6487793 16.11135254 7.68115234 16.9152832 C7.89587889 19.30155768 7.89587889 19.30155768 10 22 C14.34184202 21.81535634 14.34184202 21.81535634 18 20 C18.15655027 18.51361008 18.25066943 17.02050873 18.31640625 15.52734375 C18.35830078 14.62822266 18.40019531 13.72910156 18.44335938 12.80273438 C18.48267578 11.85720703 18.52199219 10.91167969 18.5625 9.9375 C18.60568359 8.98810547 18.64886719 8.03871094 18.69335938 7.06054688 C18.79979276 4.70718647 18.90181008 2.35371646 19 0 C21.31 0 23.62 0 26 0 C26.11689626 3.37470504 26.18747934 6.7488843 26.25 10.125 C26.30027344 11.55199219 26.30027344 11.55199219 26.3515625 13.0078125 C26.43293103 18.86634689 26.06343603 22.42498029 22 27 C17.33020791 30.11319473 12.46441192 29.72810766 7 29 C3.76974665 27.372775 1.63911339 25.27822678 0 22 C-0.08426094 20.3325394 -0.10725143 18.66174813 -0.09765625 16.9921875 C-0.09443359 16.00605469 -0.09121094 15.01992188 -0.08789062 14.00390625 C-0.07951172 12.97136719 -0.07113281 11.93882813 -0.0625 10.875 C-0.05798828 9.83472656 -0.05347656 8.79445313 -0.04882812 7.72265625 C-0.03701952 5.14838038 -0.02055075 2.57421854 0 0 Z " fill="#FCFDFD" transform="translate(186,37)"/>
<path d="M0 0 C5.55319149 2.10638298 5.55319149 2.10638298 7 5 C6.01 6.32 5.02 7.64 4 9 C3.13375 8.67 2.2675 8.34 1.375 8 C-3.14108966 6.66189936 -6.52843429 6.5094781 -11 8 C-11.90410109 12.51067826 -12.51471694 15.83018878 -10.625 20.125 C-7.16789227 22.59436266 -5.18853158 22.1643779 -1.12109375 21.4921875 C1.16912043 20.99562892 1.16912043 20.99562892 4 20 C6 23 6 23 6 26 C0.59745094 29.50435614 -4.74553907 30.12399008 -11 29 C-14.82656621 26.957349 -17.21031887 24.30469057 -19.4375 20.625 C-20.5861826 15.26448122 -20.82675704 11.59227281 -18.3125 6.75 C-12.67870624 0.05035336 -8.64415345 -1.07577312 0 0 Z " fill="#F6BF21" transform="translate(373,37)"/>
<path d="M0 0 C3.5 0.6875 3.5 0.6875 6.5 3.25 C8.5 6.6875 8.5 6.6875 8.5625 10.3125 C7.39806563 14.01129153 6.7351133 15.55913599 3.5 17.6875 C-0.90768137 18.40875695 -2.75937488 18.20751338 -6.4375 15.625 C-8.5 12.6875 -8.5 12.6875 -9.125 9.1875 C-8.10791972 3.49185045 -5.66083719 1.11195016 0 0 Z " fill="#B7D5E3" transform="translate(397.5,42.3125)"/>
<path d="M0 0 C1.98828125 0.6875 1.98828125 0.6875 3.98828125 3.6875 C4.66260328 7.94513793 4.69275528 11.53216258 2.42578125 15.25 C-0.96690001 17.25081202 -3.13886036 17.24076548 -7.01171875 16.6875 C-10.3192084 14.07632396 -11.82852384 12.06146185 -12.38671875 7.875 C-12.01171875 4.6875 -12.01171875 4.6875 -10.07421875 1.75 C-6.27927868 -0.80577597 -4.38879023 -0.59008944 0 0 Z " fill="#B8DAED" transform="translate(281.01171875,43.3125)"/>
<path d="M0 0 C9.26315789 0 9.26315789 0 12 2 C14.50031654 5.75047482 14.53603554 7.55856266 14 12 C12.0625 14.9375 12.0625 14.9375 9 17 C5.87335485 17.40782328 3.17557846 17.23698347 0 17 C0 11.39 0 5.78 0 0 Z " fill="#B8D6E1" transform="translate(454,43)"/>
<path d="M0 0 C2.31 0 4.62 0 7 0 C7 9.57 7 19.14 7 29 C4.69 29 2.38 29 0 29 C0 19.43 0 9.86 0 0 Z " fill="#FCFDFD" transform="translate(250,37)"/>
<path d="M0 0 C0.33 0.66 0.66 1.32 1 2 C1.66 2 2.32 2 3 2 C3 1.34 3 0.68 3 0 C8.52677733 -0.19392201 12.75614911 0.2520497 18 2 C17.814375 2.61875 17.62875 3.2375 17.4375 3.875 C16.76313824 6.04160178 16.76313824 6.04160178 18 8 C11.07 7.505 11.07 7.505 4 7 C4 7.66 4 8.32 4 9 C5.546875 8.938125 5.546875 8.938125 7.125 8.875 C10.86829627 8.99575149 13.53734547 9.64872018 17 11 C17 11.66 17 12.32 17 13 C14.56152549 12.88602456 12.12486826 12.75929026 9.6875 12.625 C8.65206055 12.57859375 8.65206055 12.57859375 7.59570312 12.53125 C3.93009211 12.31875081 2.12099208 12.08066139 -1 10 C-2.9896995 9.60986284 -4.99019869 9.26797351 -7 9 C-7 8.34 -7 7.68 -7 7 C-6.195625 6.87625 -5.39125 6.7525 -4.5625 6.625 C-3.716875 6.41875 -2.87125 6.2125 -2 6 C-1.67 5.34 -1.34 4.68 -1 4 C-2.65 4 -4.3 4 -6 4 C-6 3.34 -6 2.68 -6 2 C-4.02 2 -2.04 2 0 2 C0 1.34 0 0.68 0 0 Z " fill="#ABBAC6" transform="translate(83,46)"/>
<path d="M0 0 C8 0 8 0 11 1.5 C13.28906621 4.36133276 13.73664371 6.36567403 13.4765625 10.02734375 C12.61326281 13.60083837 10.99999006 15.00000663 8 17 C5.36 17 2.72 17 0 17 C0 11.39 0 5.78 0 0 Z " fill="#B8DAEE" transform="translate(225,43)"/>
<path d="M0 0 C1.27617187 0.02320312 2.55234375 0.04640625 3.8671875 0.0703125 C5.78917969 0.09738281 5.78917969 0.09738281 7.75 0.125 C9.23113281 0.15980469 9.23113281 0.15980469 10.7421875 0.1953125 C10.4121875 1.1853125 10.0821875 2.1753125 9.7421875 3.1953125 C3.8021875 3.6903125 3.8021875 3.6903125 -2.2578125 4.1953125 C-2.9178125 6.5053125 -3.5778125 8.8153125 -4.2578125 11.1953125 C1.1871875 10.2053125 1.1871875 10.2053125 6.7421875 9.1953125 C6.4121875 10.1853125 6.0821875 11.1753125 5.7421875 12.1953125 C1.6505014 14.00326682 -1.81500578 14.40687472 -6.2578125 14.1953125 C-6.5878125 16.5053125 -6.9178125 18.8153125 -7.2578125 21.1953125 C-2.6865335 20.64675902 1.41654545 19.77786447 5.7421875 18.1953125 C4.53926951 21.80406646 2.99872675 22.63934499 -0.27734375 24.40234375 C-3.36314841 25.6378829 -5.99582694 25.57907551 -9.2578125 25.1953125 C-9.9178125 24.5353125 -10.5778125 23.8753125 -11.2578125 23.1953125 C-10.90100544 18.11863668 -9.54566373 13.64928725 -7.8203125 8.8828125 C-7.38847656 7.66980469 -6.95664063 6.45679687 -6.51171875 5.20703125 C-4.85473124 1.22716405 -4.38640178 0.26297373 0 0 Z " fill="#1D4368" transform="translate(250.2578125,82.8046875)"/>
<path d="M0 0 C1.32 0 2.64 0 4 0 C4 0.66 4 1.32 4 2 C4.66 2 5.32 2 6 2 C6.33 3.32 6.66 4.64 7 6 C2.25 7 2.25 7 0 7 C-5.34085844 11.57787867 -9.8579009 17.71580181 -13 24 C-13.99 24 -14.98 24 -16 24 C-17.2263757 21.54724859 -17.11415314 19.9494219 -17.09765625 17.2109375 C-17.09443359 16.26992187 -17.09121094 15.32890625 -17.08789062 14.359375 C-17.07951172 13.37453125 -17.07113281 12.3896875 -17.0625 11.375 C-17.05798828 10.38242188 -17.05347656 9.38984375 -17.04882812 8.3671875 C-17.03702145 5.9113984 -17.020554 3.45572896 -17 1 C-15.68 1 -14.36 1 -13 1 C-13 6.28 -13 11.56 -13 17 C-12.22914063 15.94039062 -11.45828125 14.88078125 -10.6640625 13.7890625 C-9.65113352 12.40097464 -8.63810764 11.01295747 -7.625 9.625 C-7.11710937 8.92632812 -6.60921875 8.22765625 -6.0859375 7.5078125 C-5.59609375 6.8375 -5.10625 6.1671875 -4.6015625 5.4765625 C-4.15119629 4.85861816 -3.70083008 4.24067383 -3.23681641 3.60400391 C-2 2 -2 2 0 0 Z " fill="#20476B" transform="translate(400,83)"/>
<path d="M0 0 C8.85899763 9.80817595 10.35679396 21.71639993 10.203125 34.4453125 C9.96663493 38.58388881 9.28269976 42.07173198 8 46 C6.68 45.34 5.36 44.68 4 44 C4.15984375 42.99453125 4.3196875 41.9890625 4.484375 40.953125 C6.24427839 27.46053237 5.17972612 15.63610784 -2 4 C-2 3.34 -2 2.68 -2 2 C-1.34 2 -0.68 2 0 2 C0 1.34 0 0.68 0 0 Z " fill="#264F74" transform="translate(135,34)"/>
<path d="M0 0 C0.99 0 1.98 0 3 0 C2.34 3.3 1.68 6.6 1 10 C4.33557632 7.0094833 6.15083921 4.06815373 8 0 C8.66 0 9.32 0 10 0 C10.50040778 7.67291922 8.95902927 14.90505225 4.25 21.125 C1.67974319 23.88253682 1.1373407 23.98449379 -2.875 24.4375 C-3.90625 24.293125 -4.9375 24.14875 -6 24 C-6.33 23.01 -6.66 22.02 -7 21 C-5.6078125 21.0928125 -5.6078125 21.0928125 -4.1875 21.1875 C-1.08263308 21.31285935 -1.08263308 21.31285935 0.5625 19.75 C2.11763534 17.85679176 3.1366498 16.02290904 4.1875 13.8125 C4.53167969 13.09707031 4.87585938 12.38164063 5.23046875 11.64453125 C5.48441406 11.10183594 5.73835938 10.55914062 6 10 C5.34 10 4.68 10 4 10 C3.34 11.32 2.68 12.64 2 14 C-1.875 13.125 -1.875 13.125 -3 12 C-2.58335431 7.66688485 -1.80210791 3.96463741 0 0 Z " fill="#224A6B" transform="translate(357,93)"/>
<path d="M0 0 C1.0209375 0.4021875 1.0209375 0.4021875 2.0625 0.8125 C2.3925 2.4625 2.7225 4.1125 3.0625 5.8125 C1.7425 6.1425 0.4225 6.4725 -0.9375 6.8125 C-0.9375 5.8225 -0.9375 4.8325 -0.9375 3.8125 C-6.13736365 6.41243183 -9.24711361 8.43172722 -11.9375 13.8125 C-12.27344133 17.06427852 -12.27344133 17.06427852 -11.9375 19.8125 C-6.74540596 20.02442221 -2.810761 19.4037689 2.0625 17.8125 C1.08953346 20.46604511 0.40457577 21.61127896 -2.0625 23.0625 C-6.36400839 24.18463262 -10.81180617 24.87534692 -14.9375 22.8125 C-16.61610612 19.45528776 -16.71912272 16.4002764 -15.9375 12.8125 C-12.95512679 7.05926941 -6.97391532 -0.44514353 0 0 Z " fill="#244A6E" transform="translate(174.9375,83.1875)"/>
<path d="M0 0 C0.33 3.96 0.66 7.92 1 12 C-0.3921875 11.690625 -0.3921875 11.690625 -1.8125 11.375 C-5.15173402 10.63307034 -5.15173402 10.63307034 -8 13 C-10.1875 12.625 -10.1875 12.625 -12 12 C-12.8125 9.9375 -12.8125 9.9375 -13 7 C-9.61328137 0.5652346 -7.27078841 -1.42254556 0 0 Z " fill="#305476" transform="translate(217,94)"/>
<path d="M0 0 C1.03125 0.309375 2.0625 0.61875 3.125 0.9375 C2.795 4.2375 2.465 7.5375 2.125 10.9375 C2.785 10.9375 3.445 10.9375 4.125 10.9375 C3.795 11.9275 3.465 12.9175 3.125 13.9375 C2.135 13.9375 1.145 13.9375 0.125 13.9375 C-0.535 12.9475 -1.195 11.9575 -1.875 10.9375 C-2.535 11.5975 -3.195 12.2575 -3.875 12.9375 C-6.4375 13.125 -6.4375 13.125 -8.875 12.9375 C-9.875 11.9375 -9.875 11.9375 -10.3125 9.8125 C-9.73689565 6.02995716 -8.2127874 4.05732832 -5.67578125 1.25390625 C-3.875 -0.0625 -3.875 -0.0625 0 0 Z " fill="#1A4164" transform="translate(338.875,93.0625)"/>
<path d="M0 0 C0.66 0 1.32 0 2 0 C2.23509196 4.81938524 1.45184478 8.46298506 0 13 C0.99 12.34 1.98 11.68 3 11 C4.32 11.33 5.64 11.66 7 12 C7.33 14.97 7.66 17.94 8 21 C6.68 21.33 5.36 21.66 4 22 C4 19.69 4 17.38 4 15 C2.85073734 15.95421808 1.70569459 16.91352045 0.5625 17.875 C-0.07558594 18.40867187 -0.71367187 18.94234375 -1.37109375 19.4921875 C-3.10805004 20.9222757 -3.10805004 20.9222757 -4 23 C-4.99 23 -5.98 23 -7 23 C-2.91489362 2.91489362 -2.91489362 2.91489362 0 0 Z " fill="#2B5175" transform="translate(319,83)"/>
<path d="M0 0 C2.93781458 2.5293019 4.25184421 5.3249085 5.875 8.8125 C9.90235859 16.99491391 14.71599712 21.78541685 21.98828125 27.16796875 C22.65214844 27.77253906 23.31601563 28.37710938 24 29 C24 29.99 24 30.98 24 32 C15.03844036 29.47956135 7.16522618 20.11125413 2.41796875 12.4453125 C-1.48000218 5.20775766 -1.48000218 5.20775766 0 0 Z " fill="#1B456C" transform="translate(42,78)"/>
<path d="M0 0 C11.19162223 0.2152235 19.71652263 7.16388025 27.35546875 14.7890625 C29.1756377 17.23613049 29.64724836 18.99897856 30 22 C26.32150418 21.44942253 25.05184337 20.21535252 22.8125 17.3125 C16.59847278 9.921774 8.9826123 6.18798349 0 3 C0 2.01 0 1.02 0 0 Z " fill="#1B466A" transform="translate(105,14)"/>
<path d="M0 0 C0.66 0 1.32 0 2 0 C2.268125 0.7425 2.53625 1.485 2.8125 2.25 C3.99208995 4.98168199 4.95523577 6.84569483 7 9 C9.50880616 9.48261667 9.50880616 9.48261667 12.1875 9.25 C13.08855469 9.21390625 13.98960938 9.1778125 14.91796875 9.140625 C15.60503906 9.09421875 16.29210937 9.0478125 17 9 C16.69201674 10.48011371 16.378482 11.95907325 16.0625 13.4375 C15.88847656 14.26121094 15.71445313 15.08492187 15.53515625 15.93359375 C15 18 15 18 14 19 C12.33382885 19.04063832 10.66611905 19.042721 9 19 C8.67 17.35 8.34 15.7 8 14 C6.35 14 4.7 14 3 14 C3 14.99 3 15.98 3 17 C2.34 17 1.68 17 1 17 C1 14.69 1 12.38 1 10 C1.99 9.67 2.98 9.34 4 9 C3.34 8.2575 2.68 7.515 2 6.75 C0 4 0 4 0 0 Z " fill="#7390A7" transform="translate(84,71)"/>
<path d="M0 0 C1.18215088 0.00580078 1.18215088 0.00580078 2.38818359 0.01171875 C8.15144768 0.09708288 13.61953086 0.68313431 19.1875 2.25 C17.8675 2.58 16.5475 2.91 15.1875 3.25 C15.1875 3.91 15.1875 4.57 15.1875 5.25 C14.13622925 5.24214478 14.13622925 5.24214478 13.0637207 5.23413086 C9.87582299 5.21329148 6.68793964 5.20031768 3.5 5.1875 C1.84581055 5.17493164 1.84581055 5.17493164 0.15820312 5.16210938 C-0.90849609 5.15888672 -1.97519531 5.15566406 -3.07421875 5.15234375 C-4.05350342 5.14710693 -5.03278809 5.14187012 -6.04174805 5.13647461 C-8.73719572 5.24691457 -11.18795639 5.64465834 -13.8125 6.25 C-13.8125 5.59 -13.8125 4.93 -13.8125 4.25 C-14.4725 3.59 -15.1325 2.93 -15.8125 2.25 C-10.40683472 0.44572497 -5.68177072 -0.06748232 0 0 Z " fill="#1F496D" transform="translate(89.8125,10.75)"/>
<path d="M0 0 C0.66 0 1.32 0 2 0 C2.66 1.65 3.32 3.3 4 5 C6.97 5.33 9.94 5.66 13 6 C13.33 7.32 13.66 8.64 14 10 C6.74 10 -0.52 10 -8 10 C-7.67 8.68 -7.34 7.36 -7 6 C-4.69 6 -2.38 6 0 6 C0 4.02 0 2.04 0 0 Z " fill="#EFF3F5" transform="translate(88,87)"/>
<path d="M0 0 C0.75 2.25 0.75 2.25 1 5 C-0.6875 7.3125 -0.6875 7.3125 -3 9 C-4.32 9 -5.64 9 -7 9 C-7 9.66 -7 10.32 -7 11 C-3.535 10.505 -3.535 10.505 0 10 C-1 13 -1 13 -3 14 C-6.0625 14.125 -6.0625 14.125 -9 14 C-10 13 -10 13 -10.375 9.25 C-10.3305511 5.71948741 -10.02506054 5.03436875 -7.8125 2 C-4.80512535 -0.13857753 -3.58848221 -0.51264032 0 0 Z " fill="#537591" transform="translate(202,93)"/>
<path d="M0 0 C0.70125 0.268125 1.4025 0.53625 2.125 0.8125 C1.795 2.7925 1.465 4.7725 1.125 6.8125 C-1.185 7.1425 -3.495 7.4725 -5.875 7.8125 C-5.545 8.8025 -5.215 9.7925 -4.875 10.8125 C-1.41 10.3175 -1.41 10.3175 2.125 9.8125 C1.125 12.8125 1.125 12.8125 -0.875 13.8125 C-3.2079866 13.85272391 -5.54206666 13.85570247 -7.875 13.8125 C-9.46439347 10.63371306 -9.29076711 8.3168228 -8.875 4.8125 C-6.53212183 1.581215 -4.12503636 -0.26902411 0 0 Z " fill="#1A3E5D" transform="translate(428.875,93.1875)"/>
<path d="M0 0 C0.99 0 1.98 0 3 0 C2.67 3.3 2.34 6.6 2 10 C4.56166801 7.43833199 5.44554406 6.44696024 6.6875 3.3125 C7.120625 2.219375 7.55375 1.12625 8 0 C8.99 0 9.98 0 11 0 C10.34 4.62 9.68 9.24 9 14 C8.01 14 7.02 14 6 14 C5.67 13.01 5.34 12.02 5 11 C4.5875 11.515625 4.175 12.03125 3.75 12.5625 C3.1725 13.036875 2.595 13.51125 2 14 C-0.109375 13.58984375 -0.109375 13.58984375 -2 13 C-1.85915204 11.20793453 -1.71216299 9.41635083 -1.5625 7.625 C-1.48128906 6.62726563 -1.40007812 5.62953125 -1.31640625 4.6015625 C-1 2 -1 2 0 0 Z " fill="#24496B" transform="translate(287,93)"/>
<path d="M0 0 C6.8359375 -0.1953125 6.8359375 -0.1953125 9 0 C11 2 11 2 11.3125 4.5 C11.1578125 5.7375 11.1578125 5.7375 11 7 C7.91111478 9.05925681 7.29064073 9.2390374 3.8125 9.125 C1.9253125 9.063125 1.9253125 9.063125 0 9 C0 6.03 0 3.06 0 0 Z " fill="#BAD6DC" transform="translate(424,43)"/>
<path d="M0 0 C1.32 0.33 2.64 0.66 4 1 C4 3.64 4 6.28 4 9 C4.66 9 5.32 9 6 9 C6.28875 8.2575 6.5775 7.515 6.875 6.75 C7.82302644 4.43260203 8.84845911 2.22082885 10 0 C10.99 0 11.98 0 13 0 C11.63923558 5.44305768 8.96068133 10.0292406 5 14 C4.01 14 3.02 14 2 14 C0.64908472 11.29816945 0.66141942 8.88191794 0.4375 5.875 C0.35371094 4.77929688 0.26992188 3.68359375 0.18359375 2.5546875 C0.12300781 1.71164063 0.06242187 0.86859375 0 0 Z " fill="#396080" transform="translate(407,93)"/>
<path d="M0 0 C0.721875 0.103125 1.44375 0.20625 2.1875 0.3125 C2.1875 1.9625 2.1875 3.6125 2.1875 5.3125 C1.1975 5.3125 0.2075 5.3125 -0.8125 5.3125 C-0.8125 4.6525 -0.8125 3.9925 -0.8125 3.3125 C-3.71182357 5.70759338 -4.31418276 7.62495243 -4.8125 11.3125 C-2.5025 10.6525 -0.1925 9.9925 2.1875 9.3125 C1.625 11.25 1.625 11.25 0.1875 13.3125 C-3.3125 14.1875 -3.3125 14.1875 -6.8125 14.3125 C-7.4725 13.6525 -8.1325 12.9925 -8.8125 12.3125 C-8.73112956 7.99986673 -8.20439051 5.82413483 -5.5625 2.375 C-2.8125 0.3125 -2.8125 0.3125 0 0 Z " fill="#294D6E" transform="translate(307.8125,92.6875)"/>
<path d="M0 0 C0.9075 0.103125 1.815 0.20625 2.75 0.3125 C2.75 1.9625 2.75 3.6125 2.75 5.3125 C2.09 5.3125 1.43 5.3125 0.75 5.3125 C0.75 4.6525 0.75 3.9925 0.75 3.3125 C-0.24 3.3125 -1.23 3.3125 -2.25 3.3125 C-2.91 5.9525 -3.57 8.5925 -4.25 11.3125 C-1.94 10.6525 0.37 9.9925 2.75 9.3125 C2.1875 11.25 2.1875 11.25 0.75 13.3125 C-2.75 14.1875 -2.75 14.1875 -6.25 14.3125 C-6.91 13.6525 -7.57 12.9925 -8.25 12.3125 C-8.10144515 8.37579639 -7.53081101 5.80131916 -5.5625 2.375 C-3.25 0.3125 -3.25 0.3125 0 0 Z " fill="#2E5272" transform="translate(279.25,92.6875)"/>
<path d="M0 0 C6.0546875 -0.1953125 6.0546875 -0.1953125 8 0 C10 2 10 2 10.25 4.5 C10 7 10 7 8 9 C5.31160615 9.26991906 2.70858064 9.08737357 0 9 C0 6.03 0 3.06 0 0 Z " fill="#B7D5E6" transform="translate(305,43)"/>
<path d="M0 0 C0 1.32 0 2.64 0 4 C-2.31 4 -4.62 4 -7 4 C-6.154375 4.721875 -5.30875 5.44375 -4.4375 6.1875 C-2 9 -2 9 -2.0625 11.75 C-3 14 -3 14 -5 15 C-6.99960012 15.039992 -9.00047242 15.04346799 -11 15 C-11 14.01 -11 13.02 -11 12 C-9.02 12 -7.04 12 -5 12 C-5 11.34 -5 10.68 -5 10 C-5.639375 9.7525 -6.27875 9.505 -6.9375 9.25 C-9 8 -9 8 -9.75 5.875 C-9.8325 5.25625 -9.915 4.6375 -10 4 C-6.58908673 0.88145073 -4.68377325 -0.53528837 0 0 Z " fill="#274B6C" transform="translate(270,92)"/>
<path d="M0 0 C1.32 0 2.64 0 4 0 C3.67 5.94 3.34 11.88 3 18 C3.99 17.67 4.98 17.34 6 17 C5.34 18.98 4.68 20.96 4 23 C3.01 23 2.02 23 1 23 C-0.2263757 20.54724859 -0.11415314 18.9494219 -0.09765625 16.2109375 C-0.09443359 15.26992187 -0.09121094 14.32890625 -0.08789062 13.359375 C-0.07951172 12.37453125 -0.07113281 11.3896875 -0.0625 10.375 C-0.05798828 9.38242188 -0.05347656 8.38984375 -0.04882812 7.3671875 C-0.03702145 4.9113984 -0.020554 2.45572896 0 0 Z " fill="#295073" transform="translate(383,84)"/>
<path d="M0 0 C0.99 0 1.98 0 3 0 C3 0.66 3 1.32 3 2 C3.66 2 4.32 2 5 2 C5 5.63 5 9.26 5 13 C4.01 13 3.02 13 2 13 C2 13.66 2 14.32 2 15 C1.01 14.67 0.02 14.34 -1 14 C-2.4753807 10.51273652 -2.20288176 6.719499 -2 3 C-1.34 2.01 -0.68 1.02 0 0 Z " fill="#6B879D" transform="translate(67,52)"/>
<path d="M0 0 C0.99 0 1.98 0 3 0 C3 0.99 3 1.98 3 3 C3.99 2.34 4.98 1.68 6 1 C8.1875 1.375 8.1875 1.375 10 2 C10 2.66 10 3.32 10 4 C8.906875 4.33 7.81375 4.66 6.6875 5 C4.21255701 6.02705124 3.21249 6.62850886 1.8671875 8.98046875 C1.14756289 10.95419645 0.56398345 12.97629466 0 15 C-0.99 15 -1.98 15 -3 15 C-2.44854729 9.76119922 -1.57077907 5.02649303 0 0 Z " fill="#1F4468" transform="translate(182,92)"/>
<path d="M0 0 C0.66 0.66 1.32 1.32 2 2 C2.66 1.67 3.32 1.34 4 1 C3.67 4.3 3.34 7.6 3 11 C1.68 10.67 0.36 10.34 -1 10 C-0.67 9.34 -0.34 8.68 0 8 C-0.598125 8.33 -1.19625 8.66 -1.8125 9 C-4 10 -4 10 -7 10 C-7.20086443 6.28400809 -7.1519437 5.22791555 -5 2 C-4.01 2 -3.02 2 -2 2 C-2 2.66 -2 3.32 -2 4 C-1.34 4 -0.68 4 0 4 C0 2.68 0 1.36 0 0 Z " fill="#AECEE0" transform="translate(282,94)"/>
<path d="M0 0 C0.99 0.66 1.98 1.32 3 2 C3.36328125 4.2421875 3.36328125 4.2421875 3.3125 6.875 C3.30863281 7.73867188 3.30476563 8.60234375 3.30078125 9.4921875 C2.9897786 12.0852226 2.30753633 13.75999753 1 16 C0.34 16 -0.32 16 -1 16 C-3.20914 12.68629 -3.22481553 11.6553979 -3.125 7.8125 C-3.10695313 6.91144531 -3.08890625 6.01039062 -3.0703125 5.08203125 C-3.04710938 4.39496094 -3.02390625 3.70789062 -3 3 C-2.01 3.33 -1.02 3.66 0 4 C0 2.68 0 1.36 0 0 Z " fill="#9DAFBE" transform="translate(115,52)"/>
<path d="M0 0 C1.32 1.32 2.64 2.64 4 4 C2.84826645 6.46800047 1.95216435 8.04783565 0 10 C0 9.34 0 8.68 0 8 C-0.99 8.66 -1.98 9.32 -3 10 C-4.32 10 -5.64 10 -7 10 C-6.67 7.69 -6.34 5.38 -6 3 C-5.01 2.67 -4.02 2.34 -3 2 C-3 2.66 -3 3.32 -3 4 C-2.01 4 -1.02 4 0 4 C0 2.68 0 1.36 0 0 Z " fill="#B0D0E3" transform="translate(310,94)"/>
<path d="M0 0 C0.33 0 0.66 0 1 0 C1.3690205 15.74487472 1.3690205 15.74487472 -1 23 C-2.32 22.34 -3.64 21.68 -5 21 C-4.34 15.06 -3.68 9.12 -3 3 C-2.67 3 -2.34 3 -2 3 C-1.67 5.64 -1.34 8.28 -1 11 C-0.67 7.37 -0.34 3.74 0 0 Z " fill="#3E6788" transform="translate(144,57)"/>
<path d="M0 0 C4.62 0 9.24 0 14 0 C13.67 0.99 13.34 1.98 13 3 C12.01 3 11.02 3 10 3 C10 3.99 10 4.98 10 6 C10.66 6.66 11.32 7.32 12 8 C10.35 7.67 8.7 7.34 7 7 C7 5.68 7 4.36 7 3 C5.35 3 3.7 3 2 3 C2 3.99 2 4.98 2 6 C1.34 6 0.68 6 0 6 C0 4.02 0 2.04 0 0 Z " fill="#F3F6F7" transform="translate(85,82)"/>
<path d="M0 0 C1.98 0.495 1.98 0.495 4 1 C4 1.66 4 2.32 4 3 C5.546875 2.938125 5.546875 2.938125 7.125 2.875 C10.86829627 2.99575149 13.53734547 3.64872018 17 5 C17 5.66 17 6.32 17 7 C14.56152549 6.88602456 12.12486826 6.75929026 9.6875 6.625 C8.65206055 6.57859375 8.65206055 6.57859375 7.59570312 6.53125 C3.93009211 6.31875081 2.12099208 6.08066139 -1 4 C-0.67 2.68 -0.34 1.36 0 0 Z " fill="#5A778E" transform="translate(83,52)"/>
<path d="M0 0 C2.97 0.495 2.97 0.495 6 1 C6.33 4.96 6.66 8.92 7 13 C5.68 12.67 4.36 12.34 3 12 C3 11.34 3 10.68 3 10 C2.34 10 1.68 10 1 10 C1.875 5.25 1.875 5.25 3 3 C1.68 3.33 0.36 3.66 -1 4 C-0.67 2.68 -0.34 1.36 0 0 Z " fill="#193F65" transform="translate(211,93)"/>
<path d="M0 0 C0.33 0 0.66 0 1 0 C1.33 4.95 1.66 9.9 2 15 C2.33 11.04 2.66 7.08 3 3 C3.33 3 3.66 3 4 3 C4.06058594 4.02480469 4.12117188 5.04960938 4.18359375 6.10546875 C4.26805026 7.46615695 4.35269567 8.82683343 4.4375 10.1875 C4.47681641 10.86103516 4.51613281 11.53457031 4.55664062 12.22851562 C4.78927565 15.89699102 5.17207011 19.41694206 6 23 C4.68 23.33 3.36 23.66 2 24 C-0.15758273 18.75044832 -0.24042211 14.19189716 -0.125 8.625 C-0.11597656 7.79355469 -0.10695312 6.96210937 -0.09765625 6.10546875 C-0.0742622 4.07018663 -0.03839725 2.03505436 0 0 Z " fill="#396384" transform="translate(38,56)"/>
<path d="M0 0 C0.33 0 0.66 0 1 0 C0.79335495 5.88938381 -0.16562375 9.36751232 -4.234375 13.72265625 C-7.09023122 15.78872923 -9.63176533 15.47155285 -13 15 C-13.33 14.01 -13.66 13.02 -14 12 C-13.071875 12.061875 -12.14375 12.12375 -11.1875 12.1875 C-8.09076782 12.31225185 -8.09076782 12.31225185 -6.46875 10.78125 C-4.78287186 8.73667438 -3.56441679 6.64715564 -2.3125 4.3125 C-1.87550781 3.50425781 -1.43851562 2.69601563 -0.98828125 1.86328125 C-0.66214844 1.24839844 -0.33601563 0.63351563 0 0 Z " fill="#214B6D" transform="translate(364,102)"/>
<path d="M0 0 C1.32 0.33 2.64 0.66 4 1 C4.33 3.97 4.66 6.94 5 10 C3.68 10.33 2.36 10.66 1 11 C1 8.69 1 6.38 1 4 C-0.98 5.32 -2.96 6.64 -5 8 C-4.46104623 4.2273236 -3.00464642 2.31787009 0 0 Z " fill="#183E61" transform="translate(322,94)"/>
<path d="M0 0 C1.03125 0.309375 2.0625 0.61875 3.125 0.9375 C2.795 1.9275 2.465 2.9175 2.125 3.9375 C1.795 3.6075 1.465 3.2775 1.125 2.9375 C0.465 3.5975 -0.195 4.2575 -0.875 4.9375 C-0.875 4.2775 -0.875 3.6175 -0.875 2.9375 C-3.83904505 5.74554268 -6.31999019 8.12065774 -7.875 11.9375 C-7.215 12.2675 -6.555 12.5975 -5.875 12.9375 C-7.195 12.6075 -8.515 12.2775 -9.875 11.9375 C-10.3737488 9.1943816 -10.16155818 7.44385549 -8.78515625 5.01171875 C-4.93856778 -0.07965432 -4.93856778 -0.07965432 0 0 Z " fill="#234A6C" transform="translate(338.875,93.0625)"/>
<path d="M0 0 C0.33 0 0.66 0 1 0 C0.8904307 3.45900478 0.75973152 6.91689109 0.625 10.375 C0.5940625 11.35984375 0.563125 12.3446875 0.53125 13.359375 C0.49257813 14.30039063 0.45390625 15.24140625 0.4140625 16.2109375 C0.36693115 17.51490479 0.36693115 17.51490479 0.31884766 18.84521484 C0 21 0 21 -2 23 C-2.0582253 19.91674642 -2.09367134 16.83363495 -2.125 13.75 C-2.14175781 12.87730469 -2.15851562 12.00460938 -2.17578125 11.10546875 C-2.18222656 10.26113281 -2.18867187 9.41679688 -2.1953125 8.546875 C-2.20578613 7.77182617 -2.21625977 6.99677734 -2.22705078 6.19824219 C-1.97326556 3.74116461 -1.22444152 2.12688458 0 0 Z " fill="#113C63" transform="translate(41,50)"/>
<path d="M0 0 C0.66 0 1.32 0 2 0 C1.42415568 2.38564077 0.77772405 4.66682784 0 7 C-0.29460312 12.79386145 0.40839424 17.42937983 2 23 C1.34 23 0.68 23 0 23 C-2.62100434 16.88432321 -4.5093542 11.57143485 -2.3203125 4.94140625 C-1.61205992 3.26520849 -0.81378875 1.6275775 0 0 Z " fill="#CBD5DC" transform="translate(64,48)"/>
<path d="M0 0 C2.85939128 2.61074856 3.88123021 4.54507003 4.203125 8.48828125 C4.29659238 14.11969114 4.16837693 18.11541889 1 23 C0.34 23 -0.32 23 -1 23 C-0.67 22.236875 -0.34 21.47375 0 20.6875 C1.82931707 13.94189332 1.92149029 7.41104814 -1 1 C-0.67 0.67 -0.34 0.34 0 0 Z " fill="#CCD7DF" transform="translate(118,48)"/>
<path d="M0 0 C-1.35852131 3.08693704 -2.84510953 5.08641734 -5.375 7.3125 C-5.96023437 7.84488281 -6.54546875 8.37726563 -7.1484375 8.92578125 C-9 10 -9 10 -11.2265625 9.66796875 C-11.81179687 9.44753906 -12.39703125 9.22710937 -13 9 C-13 8.34 -13 7.68 -13 7 C-9.54945879 3.97593018 -4.73027845 0 0 0 Z " fill="#18446A" transform="translate(130,99)"/>
<path d="M0 0 C1.11375 0.3403125 1.11375 0.3403125 2.25 0.6875 C1.92 2.6675 1.59 4.6475 1.25 6.6875 C0.26 7.0175 -0.73 7.3475 -1.75 7.6875 C-1.75 7.0275 -1.75 6.3675 -1.75 5.6875 C-2.74 5.6875 -3.73 5.6875 -4.75 5.6875 C-4.75 5.0275 -4.75 4.3675 -4.75 3.6875 C-5.41 3.3575 -6.07 3.0275 -6.75 2.6875 C-4.29511132 0.41445492 -3.41240272 -0.38777304 0 0 Z " fill="#22486A" transform="translate(428.75,93.3125)"/>
<path d="M0 0 C0.99 0 1.98 0 3 0 C2.94004678 1.79260132 2.8512759 3.58425795 2.75 5.375 C2.70359375 6.37273437 2.6571875 7.37046875 2.609375 8.3984375 C2 11 2 11 -0.046875 12.3515625 C-0.69140625 12.56554687 -1.3359375 12.77953125 -2 13 C-2.33 12.67 -2.66 12.34 -3 12 C-2.58335431 7.66688485 -1.80210791 3.96463741 0 0 Z " fill="#375D7C" transform="translate(357,93)"/>
<path d="M0 0 C3.58583721 4.03169527 3.42996007 7.15360389 3.3046875 12.359375 C2.94080728 15.51300355 2.0240005 17.55433273 0 20 C-1.125 16.25 -1.125 16.25 0 14 C0.12114921 12.35744209 0.17540767 10.70947522 0.1875 9.0625 C0.20167969 8.18722656 0.21585937 7.31195313 0.23046875 6.41015625 C0.16663349 3.73755665 0.16663349 3.73755665 -2 1 C-1.34 0.67 -0.68 0.34 0 0 Z " fill="#1F496F" transform="translate(117,50)"/>
<path d="M0 0 C0.55171875 0.36867188 1.1034375 0.73734375 1.671875 1.1171875 C-1.45081352 3.7594624 -4.30390204 5.27880772 -8.328125 6.1171875 C-10.515625 4.65625 -10.515625 4.65625 -12.328125 3.1171875 C-10.7533956 2.38992698 -9.16788221 1.68598328 -7.578125 0.9921875 C-6.69640625 0.59773438 -5.8146875 0.20328125 -4.90625 -0.203125 C-2.328125 -0.8828125 -2.328125 -0.8828125 0 0 Z " fill="#265279" transform="translate(117.328125,107.8828125)"/>
<path d="M0 0 C0.33 0.66 0.66 1.32 1 2 C1.66 2.33 2.32 2.66 3 3 C2.505 3.350625 2.01 3.70125 1.5 4.0625 C-0.76782157 6.99176953 -0.24914047 9.38746319 0 13 C0.20625 13.928125 0.4125 14.85625 0.625 15.8125 C0.74875 16.534375 0.8725 17.25625 1 18 C0.34 18.66 -0.32 19.32 -1 20 C-2.89489282 15.26276795 -3.6909827 11.04717795 -3 6 C-1.5 2.5 -1.5 2.5 0 0 Z " fill="#2C5475" transform="translate(66,49)"/>
<path d="M0 0 C0.99 0.33 1.98 0.66 3 1 C2.57811541 2.8161982 2.13700835 4.62794073 1.6875 6.4375 C1.44386719 7.44683594 1.20023437 8.45617187 0.94921875 9.49609375 C0.63597656 10.32238281 0.32273437 11.14867188 0 12 C-0.99 12.33 -1.98 12.66 -3 13 C-2.52060632 8.28596212 -2.03165952 4.33420699 0 0 Z " fill="#294F71" transform="translate(402,94)"/>
<path d="M0 0 C0.99 0.33 1.98 0.66 3 1 C3 1.99 3 2.98 3 4 C5.64 3.34 8.28 2.68 11 2 C10.4375 3.9375 10.4375 3.9375 9 6 C5.5 6.875 5.5 6.875 2 7 C0 5 0 5 -0.125 2.375 C-0.08375 1.59125 -0.0425 0.8075 0 0 Z " fill="#204363" transform="translate(299,100)"/>
<path d="M0 0 C1.65 0 3.3 0 5 0 C5.6875 2.3125 5.6875 2.3125 6 5 C4.875 6.8125 4.875 6.8125 3 8 C0.3125 8.1875 0.3125 8.1875 -2 8 C-0.35 6.35 1.3 4.7 3 3 C1.35 3.33 -0.3 3.66 -2 4 C-1.34 2.68 -0.68 1.36 0 0 Z " fill="#1E4165" transform="translate(197,93)"/>
<path d="M0 0 C0.66 0.33 1.32 0.66 2 1 C2 6.28 2 11.56 2 17 C1.34 16.67 0.68 16.34 0 16 C-0.34008959 13.46855055 -0.55918401 11.04298964 -0.6875 8.5 C-0.73455078 7.79746094 -0.78160156 7.09492187 -0.83007812 6.37109375 C-0.93516357 4.58291855 -0.97279942 2.79105378 -1 1 C-0.67 0.67 -0.34 0.34 0 0 Z " fill="#143D63" transform="translate(142,52)"/>
<path d="M0 0 C2.69082872 0.17635452 5.32851446 0.61835921 8 1 C6.68 1.33 5.36 1.66 4 2 C4 2.66 4 3.32 4 4 C-2.6 3.67 -9.2 3.34 -16 3 C-16 2.67 -16 2.34 -16 2 C-14.92878906 1.93941406 -13.85757813 1.87882813 -12.75390625 1.81640625 C-11.35675609 1.73201463 -9.95962143 1.64736594 -8.5625 1.5625 C-7.50192383 1.50352539 -7.50192383 1.50352539 -6.41992188 1.44335938 C-2.91309581 1.52375562 -2.91309581 1.52375562 0 0 Z " fill="#396485" transform="translate(101,12)"/>
<path d="M0 0 C7.50769231 0.61538462 7.50769231 0.61538462 10 2.5625 C10.33 3.036875 10.66 3.51125 11 4 C6.70700357 5.26264601 4.12168689 4.62950412 0 3 C0 2.01 0 1.02 0 0 Z " fill="#1A4367" transform="translate(105,14)"/>
<path d="M0 0 C0.66 0 1.32 0 2 0 C2 0.99 2 1.98 2 3 C4.64 2.67 7.28 2.34 10 2 C9 5 9 5 7 6 C3.9375 6.125 3.9375 6.125 1 6 C0 5 0 5 -0.0625 2.4375 C-0.041875 1.633125 -0.02125 0.82875 0 0 Z " fill="#214465" transform="translate(192,101)"/>
<path d="M0 0 C1.93742341 -0.02703381 3.87495479 -0.04641125 5.8125 -0.0625 C6.89144531 -0.07410156 7.97039062 -0.08570313 9.08203125 -0.09765625 C12 0 12 0 15 1 C14.67 1.99 14.34 2.98 14 4 C9.38 3.34 4.76 2.68 0 2 C0 1.34 0 0.68 0 0 Z " fill="#3A5E7A" transform="translate(85,60)"/>
<path d="M0 0 C0.33 0.99 0.66 1.98 1 3 C3.64 2.34 6.28 1.68 9 1 C8.4375 2.9375 8.4375 2.9375 7 5 C3.375 5.75 3.375 5.75 0 6 C-0.38218767 4.34385343 -0.71395102 2.67542976 -1 1 C-0.67 0.67 -0.34 0.34 0 0 Z " fill="#1C4162" transform="translate(273,101)"/>
<path d="M0 0 C0.99 0 1.98 0 3 0 C3 0.99 3 1.98 3 3 C3.99 2.34 4.98 1.68 6 1 C8.1875 1.375 8.1875 1.375 10 2 C10 2.66 10 3.32 10 4 C6.62902617 5.49821059 4.79557881 6 1 6 C0.67 4.02 0.34 2.04 0 0 Z " fill="#2D4F71" transform="translate(182,92)"/>
<path d="M0 0 C1.65 0.33 3.3 0.66 5 1 C5.33 2.65 5.66 4.3 6 6 C4.68 6.33 3.36 6.66 2 7 C2 6.01 2 5.02 2 4 C1.01 3.67 0.02 3.34 -1 3 C-0.67 2.01 -0.34 1.02 0 0 Z " fill="#315679" transform="translate(172,83)"/>
<path d="M0 0 C-0.5625 1.875 -0.5625 1.875 -2 4 C-5.375 5.4375 -5.375 5.4375 -9 6 C-11.4375 4.625 -11.4375 4.625 -13 3 C-12.37351563 2.86722656 -11.74703125 2.73445313 -11.1015625 2.59765625 C-10.28429687 2.42105469 -9.46703125 2.24445313 -8.625 2.0625 C-7.81289062 1.88847656 -7.00078125 1.71445313 -6.1640625 1.53515625 C-3.88723554 0.9721142 -2.3530537 0 0 0 Z " fill="#2F5679" transform="translate(177,101)"/>
<path d="M0 0 C0.66 0.66 1.32 1.32 2 2 C0.68 4.64 -0.64 7.28 -2 10 C-2.99 10 -3.98 10 -5 10 C-4.34 7.03 -3.68 4.06 -3 1 C-2.34 1.33 -1.68 1.66 -1 2 C-0.67 1.34 -0.34 0.68 0 0 Z " fill="#2E5374" transform="translate(317,96)"/>
<path d="M0 0 C0.99 0.99 1.98 1.98 3 3 C-0.17320782 6.53586014 -2.16743695 8.58578031 -7 9 C-6.02180976 7.68677212 -5.0424189 6.37443848 -4.0625 5.0625 C-3.51722656 4.33160156 -2.97195312 3.60070312 -2.41015625 2.84765625 C-1 1 -1 1 0 0 Z " fill="#245178" transform="translate(132,92)"/>
<path d="M0 0 C0.33 0.66 0.66 1.32 1 2 C1.66 2 2.32 2 3 2 C3.33 3.32 3.66 4.64 4 6 C-0.75 7 -0.75 7 -3 7 C-3.99 7.495 -3.99 7.495 -5 8 C-3.62845496 5.04590299 -2.01136276 2.55991624 0 0 Z " fill="#6B91AC" transform="translate(403,83)"/>
<path d="M0 0 C4.62 0 9.24 0 14 0 C13.67 0.99 13.34 1.98 13 3 C8.71 2.67 4.42 2.34 0 2 C0 1.34 0 0.68 0 0 Z " fill="#345C80" transform="translate(247,83)"/>
<path d="M0 0 C-0.33 0.99 -0.66 1.98 -1 3 C-3.06640625 3.73046875 -3.06640625 3.73046875 -5.5625 4.1875 C-6.38878906 4.34605469 -7.21507812 4.50460938 -8.06640625 4.66796875 C-9.02353516 4.83232422 -9.02353516 4.83232422 -10 5 C-10 4.34 -10 3.68 -10 3 C-10.66 3 -11.32 3 -12 3 C-11.67 2.34 -11.34 1.68 -11 1 C-7.25879194 0.39657934 -3.78319079 0 0 0 Z " fill="#32587C" transform="translate(257,92)"/>
<path d="M0 0 C1.65 0 3.3 0 5 0 C5.0825 0.61875 5.165 1.2375 5.25 1.875 C5.81258459 4.18437567 5.81258459 4.18437567 8.0625 5.25 C8.701875 5.4975 9.34125 5.745 10 6 C8.35 6.33 6.7 6.66 5 7 C4.34 5.35 3.68 3.7 3 2 C2.34 2 1.68 2 1 2 C1 3.98 1 5.96 1 8 C0.87625 7.360625 0.7525 6.72125 0.625 6.0625 C0.315625 5.0415625 0.315625 5.0415625 0 4 C-0.66 3.67 -1.32 3.34 -2 3 C-1.34 3 -0.68 3 0 3 C0 2.01 0 1.02 0 0 Z " fill="#5D7F98" transform="translate(87,85)"/>
<path d="M0 0 C5.4389165 -0.21755666 9.87080814 -0.10428384 15 2 C15 2.66 15 3.32 15 4 C13.7934375 3.7834375 13.7934375 3.7834375 12.5625 3.5625 C8.38640519 2.90311661 4.20401941 2.43908647 0 2 C0 1.34 0 0.68 0 0 Z " fill="#2B5271" transform="translate(84,64)"/>
<path d="M0 0 C0.66 0 1.32 0 2 0 C1.67 0.99 1.34 1.98 1 3 C0.76705155 9.08568662 0.76705155 9.08568662 2 15 C1.01 14.67 0.02 14.34 -1 14 C-2.4753807 10.51273652 -2.20288176 6.719499 -2 3 C-1.34 2.01 -0.68 1.02 0 0 Z " fill="#D1DAE1" transform="translate(67,52)"/>
<path d="M0 0 C1.5 1.1875 1.5 1.1875 3 3 C3.1875 5.6875 3.1875 5.6875 3 8 C1.35 8 -0.3 8 -2 8 C-1.125 1.125 -1.125 1.125 0 0 Z " fill="#B4DBEF" transform="translate(167,46)"/>
<path d="M0 0 C0 0.99 0 1.98 0 3 C1.98 3 3.96 3 6 3 C6 3.33 6 3.66 6 4 C4.6078125 4.1546875 4.6078125 4.1546875 3.1875 4.3125 C-0.03254358 5.0070192 -1.02579865 5.47740939 -3 8 C-3.33 5.69 -3.66 3.38 -4 1 C-2 0 -2 0 0 0 Z " fill="#0F3A5E" transform="translate(75,57)"/>
<path d="M0 0 C4.29 0.33 8.58 0.66 13 1 C13.33 1.99 13.66 2.98 14 4 C13.175 3.855625 12.35 3.71125 11.5 3.5625 C7.67313722 2.94746848 3.84783293 2.46439363 0 2 C0 1.34 0 0.68 0 0 Z " fill="#315574" transform="translate(87,46)"/>
<path d="M0 0 C10.55808656 -0.3690205 10.55808656 -0.3690205 15 2 C15 2.33 15 2.66 15 3 C10.05 2.67 5.1 2.34 0 2 C0 1.34 0 0.68 0 0 Z " fill="#2C5071" transform="translate(87,42)"/>
<path d="M0 0 C2.91517292 1.07401108 4.77810176 1.77810176 7 4 C7 4.99 7 5.98 7 7 C4.0280615 5.87548273 1.66559313 4.77706209 -1 3 C-0.67 2.01 -0.34 1.02 0 0 Z " fill="#174267" transform="translate(59,103)"/>
<path d="M0 0 C2.60334924 2.71182212 2.99456691 3.89133813 3.1875 7.75 C3.125625 8.8225 3.06375 9.895 3 11 C1.68 11.33 0.36 11.66 -1 12 C-1.14285714 3.42857143 -1.14285714 3.42857143 0 0 Z " fill="#ADCEE2" transform="translate(297,95)"/>
<path d="M0 0 C3.465 1.485 3.465 1.485 7 3 C7 4.32 7 5.64 7 7 C1.25 5.25 1.25 5.25 -1 3 C-0.67 2.01 -0.34 1.02 0 0 Z " fill="#275379" transform="translate(66,107)"/>
<path d="M0 0 C2.97 0.495 2.97 0.495 6 1 C6 3.97 6 6.94 6 10 C5.67 10 5.34 10 5 10 C4.855625 9.21625 4.71125 8.4325 4.5625 7.625 C4.12201075 5.03578982 4.12201075 5.03578982 3 3 C1.68 3.33 0.36 3.66 -1 4 C-0.67 2.68 -0.34 1.36 0 0 Z " fill="#274B6E" transform="translate(211,93)"/>
<path d="M0 0 C0.556875 0.350625 1.11375 0.70125 1.6875 1.0625 C4.53886783 2.21845993 6.08517222 1.80967438 9 1 C8 4 8 4 6 5 C3.6670134 5.04022391 1.33293334 5.04320247 -1 5 C-0.67 3.35 -0.34 1.7 0 0 Z " fill="#204666" transform="translate(422,102)"/>
<path d="M0 0 C0.5775 0.763125 1.155 1.52625 1.75 2.3125 C3.71703093 4.66200917 5.48476744 6.29323505 8 8 C2.58860759 8.36075949 2.58860759 8.36075949 0.0625 6.8125 C-1 5 -1 5 -0.6875 2.3125 C-0.460625 1.549375 -0.23375 0.78625 0 0 Z " fill="#173E62" transform="translate(160,99)"/>
<path d="M0 0 C0.99 0 1.98 0 3 0 C1.79157144 4.43090471 0.48331435 6.98112756 -3 10 C-2.49287967 6.28111761 -1.88391785 3.26545761 0 0 Z " fill="#1D3E5D" transform="translate(417,93)"/>
<path d="M0 0 C1.32 0.33 2.64 0.66 4 1 C3.01 1.66 2.02 2.32 1 3 C1.33 4.32 1.66 5.64 2 7 C0.35 7.33 -1.3 7.66 -3 8 C-3.33 7.34 -3.66 6.68 -4 6 C-2.68 4.02 -1.36 2.04 0 0 Z " fill="#CFD9E0" transform="translate(93,32)"/>
<path d="M0 0 C0.99 0 1.98 0 3 0 C2.5205537 4.21912747 1.83374881 6.79663178 -1 10 C-1.125 2.25 -1.125 2.25 0 0 Z " fill="#214565" transform="translate(287,93)"/>
<path d="M0 0 C1.08667969 0.11085937 2.17335938 0.22171875 3.29296875 0.3359375 C4.12441406 0.43132813 4.95585938 0.52671875 5.8125 0.625 C2.37074478 2.77199969 0.0404708 2.72356795 -3.9375 2.25 C-4.92234375 2.13914063 -5.9071875 2.02828125 -6.921875 1.9140625 C-7.66953125 1.81867187 -8.4171875 1.72328125 -9.1875 1.625 C-5.54331659 -0.80445561 -4.25826636 -0.4578781 0 0 Z " fill="#D2DBE1" transform="translate(96.1875,44.375)"/>
<path d="M0 0 C0.99 0 1.98 0 3 0 C1.52307692 4.67692308 1.52307692 4.67692308 -1.125 6.3125 C-2.053125 6.6528125 -2.053125 6.6528125 -3 7 C-2.25 2.25 -2.25 2.25 0 0 Z " fill="#ADCEE1" transform="translate(211,96)"/>
<path d="M0 0 C0.33 0.66 0.66 1.32 1 2 C2.98 2 4.96 2 7 2 C7 2.66 7 3.32 7 4 C5.02 4 3.04 4 1 4 C1 5.98 1 7.96 1 10 C0.67 10 0.34 10 0 10 C-1.125 2.25 -1.125 2.25 0 0 Z " fill="#3D6383" transform="translate(74,62)"/>
<path d="M0 0 C2.475 0.495 2.475 0.495 5 1 C5 3.64 5 6.28 5 9 C4.01 9 3.02 9 2 9 C2.33 6.69 2.66 4.38 3 2 C2.01 1.67 1.02 1.34 0 1 C0 0.67 0 0.34 0 0 Z " fill="#133A5E" transform="translate(106,55)"/>
<path d="M0 0 C0.99 0 1.98 0 3 0 C2.75 2.875 2.75 2.875 2 6 C-0.0625 7.375 -0.0625 7.375 -2 8 C-1.34 5.36 -0.68 2.72 0 0 Z " fill="#26496E" transform="translate(221,103)"/>
<path d="M0 0 C2 3 2 3 2 7 C1.34 7 0.68 7 0 7 C0 7.99 0 8.98 0 10 C-0.66 10 -1.32 10 -2 10 C-1.54177532 6.53058454 -1.10868317 3.32604951 0 0 Z " fill="#315576" transform="translate(241,96)"/>
<path d="M0 0 C0.33 0.99 0.66 1.98 1 3 C-3.29 2.34 -7.58 1.68 -12 1 C-12 0.67 -12 0.34 -12 0 C-7.74433453 -1.16063604 -4.3164922 -0.76173392 0 0 Z " fill="#DDE3E6" transform="translate(97,63)"/>
<path d="M0 0 C0 0.99 0 1.98 0 3 C-1.98 3.33 -3.96 3.66 -6 4 C-6.33 3.01 -6.66 2.02 -7 1 C-4.53721199 -0.231394 -2.7204945 -0.07159196 0 0 Z " fill="#184266" transform="translate(76,14)"/>
<path d="M0 0 C0.33 0 0.66 0 1 0 C0.67 2.64 0.34 5.28 0 8 C-0.99 8.33 -1.98 8.66 -3 9 C-2.5020163 5.26512223 -2.12508244 3.18762365 0 0 Z " fill="#174063" transform="translate(364,102)"/>
<path d="M0 0 C1.32 0.66 2.64 1.32 4 2 C2.63016497 5.16115776 2.0109362 5.9927092 -1 8 C-0.67 5.36 -0.34 2.72 0 0 Z " fill="#A9C9DC" transform="translate(289,96)"/>
<path d="M0 0 C-0.34879632 3.25543229 -1.02133261 4.01873107 -3.5625 6.25 C-4.366875 6.8275 -5.17125 7.405 -6 8 C-5.62403791 5.21788056 -5.32681541 3.4120716 -3.5625 1.1875 C-2 0 -2 0 0 0 Z " fill="#B0D1E6" transform="translate(338,96)"/>
<path d="M0 0 C0.99 0 1.98 0 3 0 C3 3.63 3 7.26 3 11 C0.43383368 7.15075052 0.44902324 4.5650696 0 0 Z " fill="#173A5C" transform="translate(407,93)"/>
<path d="M0 0 C0.66 0 1.32 0 2 0 C2.45375 0.928125 2.9075 1.85625 3.375 2.8125 C4.9421633 6.03921389 4.9421633 6.03921389 7 9 C3.34683329 7.75023244 2.21934164 7.32901247 0 4 C0 2.68 0 1.36 0 0 Z " fill="#3A5F7D" transform="translate(88,70)"/>
<path d="M0 0 C0.66 0.33 1.32 0.66 2 1 C-2.455 4.465 -2.455 4.465 -7 8 C-7.66 7.34 -8.32 6.68 -9 6 C-6.03 4.02 -3.06 2.04 0 0 Z " fill="#1F4E72" transform="translate(73,24)"/>
<path d="M0 0 C0.99 0 1.98 0 3 0 C2.25 4.75 2.25 4.75 0 7 C-0.66 7 -1.32 7 -2 7 C-1.34 4.69 -0.68 2.38 0 0 Z " fill="#254B6E" transform="translate(357,93)"/>
<path d="M0 0 C2.875 -0.125 2.875 -0.125 6 0 C6.66 0.66 7.32 1.32 8 2 C7.67 2.33 7.34 2.66 7 3 C4.30917128 2.82364548 1.67148554 2.38164079 -1 2 C-0.67 1.34 -0.34 0.68 0 0 Z " fill="#143F63" transform="translate(79,113)"/>
<path d="M0 0 C0.33 0 0.66 0 1 0 C1.33 2.97 1.66 5.94 2 9 C0.68 9.33 -0.64 9.66 -2 10 C-2 8.35 -2 6.7 -2 5 C-1.67 5 -1.34 5 -1 5 C-0.67 3.35 -0.34 1.7 0 0 Z " fill="#264F70" transform="translate(325,95)"/>
<path d="M0 0 C0.6875 1.6875 0.6875 1.6875 1 4 C-0.375 6.75 -0.375 6.75 -2 9 C-2.33 9 -2.66 9 -3 9 C-2.25 2.25 -2.25 2.25 0 0 Z " fill="#183D62" transform="translate(318,90)"/>
<path d="M0 0 C1.5625 1.5 1.5625 1.5 3 4 C2.96823234 6.77437543 2.50364148 9.25286467 2 12 C1.67 12 1.34 12 1 12 C0.8046875 10.01432292 0.609375 8.02864583 0.4140625 6.04296875 C0.07334609 3.70011858 0.07334609 3.70011858 -2 1 C-1.34 0.67 -0.68 0.34 0 0 Z " fill="#395E7F" transform="translate(117,50)"/>
<path d="M0 0 C1.98 0.495 1.98 0.495 4 1 C3.67 3.31 3.34 5.62 3 8 C2.34 6.68 1.68 5.36 1 4 C0.34 4.99 -0.32 5.98 -1 7 C-0.67 4.69 -0.34 2.38 0 0 Z " fill="#396081" transform="translate(40,47)"/>
<path d="M0 0 C0.66 0.33 1.32 0.66 2 1 C0.515 3.475 0.515 3.475 -1 6 C-2.32 5.67 -3.64 5.34 -5 5 C-4.67 4.01 -4.34 3.02 -4 2 C-3.34 2 -2.68 2 -2 2 C-1.34 1.34 -0.68 0.68 0 0 Z " fill="#305777" transform="translate(336,100)"/>
<path d="M0 0 C-0.33 0.99 -0.66 1.98 -1 3 C-4.0625 4.1875 -4.0625 4.1875 -7 5 C-7.66 4.34 -8.32 3.68 -9 3 C-2.25 0 -2.25 0 0 0 Z " fill="#2E5677" transform="translate(256,101)"/>
<path d="M0 0 C1.60407328 -0.02708567 3.2082785 -0.04643483 4.8125 -0.0625 C5.70582031 -0.07410156 6.59914063 -0.08570313 7.51953125 -0.09765625 C10 0 10 0 13 1 C13 1.66 13 2.32 13 3 C12.01 2.7834375 12.01 2.7834375 11 2.5625 C7.34400449 1.87700084 3.69377805 1.43824485 0 1 C0 0.67 0 0.34 0 0 Z " fill="#224A69" transform="translate(87,56)"/>
<path d="M0 0 C0.33 1.32 0.66 2.64 1 4 C1.66 4 2.32 4 3 4 C2.67 4.99 2.34 5.98 2 7 C1.01 7 0.02 7 -1 7 C-1.04254356 5.00045254 -1.04080783 2.99958364 -1 1 C-0.67 0.67 -0.34 0.34 0 0 Z " fill="#2F5677" transform="translate(340,100)"/>
<path d="M0 0 C0.33 1.65 0.66 3.3 1 5 C0.01 5.33 -0.98 5.66 -2 6 C-2 5.34 -2 4.68 -2 4 C-2.99 3.67 -3.98 3.34 -5 3 C-2.25 0 -2.25 0 0 0 Z " fill="#688DA7" transform="translate(429,95)"/>
<path d="M0 0 C0.99 0 1.98 0 3 0 C2.67 1.98 2.34 3.96 2 6 C1.01 6 0.02 6 -1 6 C-1.33 5.34 -1.66 4.68 -2 4 C-1.0625 1.875 -1.0625 1.875 0 0 Z " fill="#315677" transform="translate(295,93)"/>
<path d="M0 0 C2.09749995 2.35968744 2.96905704 3.54616994 3.1875 6.75 C3.125625 7.4925 3.06375 8.235 3 9 C1.68 8.34 0.36 7.68 -1 7 C-0.67 4.69 -0.34 2.38 0 0 Z " fill="#365F81" transform="translate(140,71)"/>
<path d="M0 0 C0.66 0 1.32 0 2 0 C3.07525194 2.65228812 4.09456151 5.28368454 5 8 C3.0625 7.375 3.0625 7.375 1 6 C0.25 2.875 0.25 2.875 0 0 Z " fill="#396382" transform="translate(84,71)"/>
<path d="M0 0 C0.99 0.33 1.98 0.66 3 1 C2.67 2.65 2.34 4.3 2 6 C1.01 6.33 0.02 6.66 -1 7 C-0.67 4.69 -0.34 2.38 0 0 Z " fill="#174267" transform="translate(42,42)"/>
<path d="M0 0 C0.66 0 1.32 0 2 0 C2 2.31 2 4.62 2 7 C1.34 6.34 0.68 5.68 0 5 C-0.99 5.495 -0.99 5.495 -2 6 C-1.34 4.02 -0.68 2.04 0 0 Z " fill="#2B5274" transform="translate(365,93)"/>
<path d="M0 0 C0.66 0.99 1.32 1.98 2 3 C0.68 4.32 -0.64 5.64 -2 7 C-2.66 6.34 -3.32 5.68 -4 5 C-2.68 3.35 -1.36 1.7 0 0 Z " fill="#264F76" transform="translate(395,89)"/>
<path d="M0 0 C0.66 0.66 1.32 1.32 2 2 C1.625 4.625 1.625 4.625 1 7 C0.67 6.34 0.34 5.68 0 5 C-0.66 5 -1.32 5 -2 5 C-1.125 1.125 -1.125 1.125 0 0 Z " fill="#234D72" transform="translate(140,77)"/>
<path d="M0 0 C0.99 0.33 1.98 0.66 3 1 C2.2884375 1.8353125 2.2884375 1.8353125 1.5625 2.6875 C-0.12395996 5.18346074 -0.58953107 7.0446237 -1 10 C-1.33 10 -1.66 10 -2 10 C-2.25 3.375 -2.25 3.375 0 0 Z " fill="#BED2CD" transform="translate(391,45)"/>
</svg>
